<svg id="레이어_1" data-name="레이어 1" xmlns="http://www.w3.org/2000/svg" viewBox="0 0 394 394"><defs><style>.cls-1{fill:#f4f6f8;}.cls-2{fill:#0046ff;}.cls-14,.cls-3,.cls-4,.cls-5{fill:#fff;}.cls-3{opacity:0.8;}.cls-11,.cls-13,.cls-14,.cls-3,.cls-5,.cls-6,.cls-9{isolation:isolate;}.cls-5,.cls-6{opacity:0.3;}.cls-7{fill:#263238;}.cls-8{fill:#ff8b7b;}.cls-9{opacity:0.2;}.cls-10{fill:#5c6c75;}.cls-11,.cls-14{opacity:0.4;}.cls-12{fill:#21313c;}.cls-13{opacity:0.5;}</style></defs><title>image</title><path class="cls-1" d="M197,336.92c84.38,0,152.79-4,152.79-8.92s-68.41-8.92-152.79-8.92-152.79,4-152.79,8.92S112.62,336.92,197,336.92Z"/><path class="cls-2" d="M205.2,288H104.68a6.4,6.4,0,0,1-6.31-6l-9-174.58a5.55,5.55,0,0,1,.33-2.28,5.4,5.4,0,0,1,1.21-2,5.67,5.67,0,0,1,1.9-1.31,5.47,5.47,0,0,1,2.26-.45H195.59a6.4,6.4,0,0,1,6.3,6l9,174.58a5.61,5.61,0,0,1-1.53,4.25,5.47,5.47,0,0,1-1.9,1.32A5.33,5.33,0,0,1,205.2,288Z"/><path class="cls-3" d="M205.2,288H104.68a6.4,6.4,0,0,1-6.31-6l-9-174.58a5.55,5.55,0,0,1,.33-2.28,5.4,5.4,0,0,1,1.21-2,5.67,5.67,0,0,1,1.9-1.31,5.47,5.47,0,0,1,2.26-.45H195.59a6.4,6.4,0,0,1,6.3,6l9,174.58a5.61,5.61,0,0,1-1.53,4.25,5.47,5.47,0,0,1-1.9,1.32A5.33,5.33,0,0,1,205.2,288Z"/><path class="cls-2" d="M185.67,95.71H174.55v.79h11.12Z"/><path class="cls-2" d="M170.7,95.71h-4.08v.79h4.08Z"/><path class="cls-2" d="M209.53,276.93H113.39a6.06,6.06,0,0,1-4.15-1.68,6.17,6.17,0,0,1-1.9-4.06l-8.6-167a5.42,5.42,0,0,1,5.08-5.74h96.52a6.13,6.13,0,0,1,6,5.75l8.6,167a5.28,5.28,0,0,1-.31,2.19,5.41,5.41,0,0,1-5.16,3.55Z"/><path class="cls-4" d="M209.53,273.1H113.39a2.32,2.32,0,0,1-1.51-.64,2.27,2.27,0,0,1-.7-1.48l-8.61-167a1.36,1.36,0,0,1,.08-.66,1.66,1.66,0,0,1,.34-.57,1.57,1.57,0,0,1,.55-.37,1.62,1.62,0,0,1,.65-.11h96.13a2.28,2.28,0,0,1,2.21,2.11l8.65,167a1.6,1.6,0,0,1-.08.65,1.53,1.53,0,0,1-.34.56,1.64,1.64,0,0,1-.55.38,1.73,1.73,0,0,1-.64.12ZM104.19,102.5a1.43,1.43,0,0,0-.58.11,1.28,1.28,0,0,0-.77.82,1.43,1.43,0,0,0-.08.58l8.61,167a2.07,2.07,0,0,0,.64,1.34,2.13,2.13,0,0,0,1.37.58h96.14a1.38,1.38,0,0,0,1-.42,1.71,1.71,0,0,0,.3-.5,1.47,1.47,0,0,0,.07-.59l-8.6-167a2.09,2.09,0,0,0-2-1.93Z"/><path class="cls-5" d="M175.9,163.16c10.94-11.22,10.23-29.65-1.59-41.16s-30.25-11.75-41.18-.53-10.23,29.65,1.59,41.16S165,174.38,175.9,163.16Z"/><path class="cls-4" d="M178.09,142.32a22.65,22.65,0,0,1-2.26,11.22,22.11,22.11,0,0,1-20.07,12.33,25,25,0,0,1-21.34-12.33A24.21,24.21,0,0,1,131,142.32a22.13,22.13,0,0,1,20.67-23.5c.55,0,1.11,0,1.66,0A25.07,25.07,0,0,1,178.09,142.32Z"/><path class="cls-2" d="M175.8,153.54a22.09,22.09,0,0,1-20.07,12.33,25,25,0,0,1-21.33-12.33,35.63,35.63,0,0,1,20.37-6.3A38.8,38.8,0,0,1,175.8,153.54Z"/><path class="cls-2" d="M161.81,141.77a10.77,10.77,0,1,0-15.22-.58l.38.39A10.51,10.51,0,0,0,161.81,141.77Z"/><path class="cls-4" d="M195.75,212H120.47a2.58,2.58,0,0,1-2.56-2.43l-.57-11a2.44,2.44,0,0,1,.13-.93,2.49,2.49,0,0,1,.49-.79,2.26,2.26,0,0,1,.77-.53,2.07,2.07,0,0,1,.92-.18h75.28a2.59,2.59,0,0,1,1.75.71,2.56,2.56,0,0,1,.81,1.72l.56,11a2.06,2.06,0,0,1-.13.92,2.14,2.14,0,0,1-.49.8,2.17,2.17,0,0,1-.77.53A2.21,2.21,0,0,1,195.75,212Z"/><path class="cls-6" d="M172.7,190H141.26a2.6,2.6,0,0,1-1.77-.72,2.58,2.58,0,0,1-.8-1.73l-.12-2.36a2.44,2.44,0,0,1,.13-.93,2.49,2.49,0,0,1,.49-.79,2.34,2.34,0,0,1,1.69-.72h31.43a2.62,2.62,0,0,1,1.76.72,2.51,2.51,0,0,1,.8,1.72l.13,2.36a2.26,2.26,0,0,1-.13.93,2.33,2.33,0,0,1-.49.79,2.29,2.29,0,0,1-.77.54A2.39,2.39,0,0,1,172.7,190Z"/><path class="cls-6" d="M184.39,265h-47.1a4.4,4.4,0,0,1-4.35-4.14l-.28-5.44a3.83,3.83,0,0,1,.24-1.57,4,4,0,0,1,.84-1.35,3.86,3.86,0,0,1,2.86-1.22h47.08a4.4,4.4,0,0,1,4.36,4.14l.28,5.44a4.14,4.14,0,0,1-.24,1.56,3.88,3.88,0,0,1-.84,1.35,3.78,3.78,0,0,1-1.29.91A4,4,0,0,1,184.39,265Z"/><path class="cls-4" d="M197.13,238.65H121.84a2.55,2.55,0,0,1-1.76-.71,2.62,2.62,0,0,1-.8-1.72l-.57-11a2.27,2.27,0,0,1,.14-.93,2.1,2.1,0,0,1,.49-.79,2.29,2.29,0,0,1,.76-.54,2.39,2.39,0,0,1,.92-.18H196.3a2.58,2.58,0,0,1,2.56,2.44l.57,11a2.21,2.21,0,0,1-.13.92,2.24,2.24,0,0,1-1.26,1.33A2.38,2.38,0,0,1,197.13,238.65Z"/><path class="cls-7" d="M130,204a2.44,2.44,0,0,1-.15,1,2.58,2.58,0,0,1-.54.88,2.53,2.53,0,0,1-1.85.79,2.85,2.85,0,0,1-2.83-2.7,2.44,2.44,0,0,1,.15-1,2.53,2.53,0,0,1,2.4-1.67,2.89,2.89,0,0,1,1.95.79A2.83,2.83,0,0,1,130,204Z"/><path class="cls-7" d="M138.32,204a2.44,2.44,0,0,1-.15,1,2.58,2.58,0,0,1-.54.88,2.53,2.53,0,0,1-1.85.79A2.88,2.88,0,0,1,133,204a2.53,2.53,0,0,1,2.56-2.69,2.82,2.82,0,0,1,1.94.79A2.88,2.88,0,0,1,138.32,204Z"/><path class="cls-7" d="M146.57,204a2.44,2.44,0,0,1-.15,1,2.58,2.58,0,0,1-.54.88,2.53,2.53,0,0,1-1.85.79,2.88,2.88,0,0,1-2.83-2.7,2.49,2.49,0,0,1,.69-1.9,2.54,2.54,0,0,1,1.87-.79,2.88,2.88,0,0,1,2.83,2.69Z"/><path class="cls-7" d="M154.88,204a2.61,2.61,0,0,1-.14,1,2.52,2.52,0,0,1-.55.88,2.37,2.37,0,0,1-.85.59,2.49,2.49,0,0,1-1,.21,2.92,2.92,0,0,1-2-.79,3,3,0,0,1-.89-1.91,2.53,2.53,0,0,1,1.54-2.49,2.29,2.29,0,0,1,1-.2,2.86,2.86,0,0,1,1.94.79A2.8,2.8,0,0,1,154.88,204Z"/><path class="cls-7" d="M131.41,230.69a2.27,2.27,0,0,1-.14,1,2.49,2.49,0,0,1-.54.88,2.37,2.37,0,0,1-.85.59,2.32,2.32,0,0,1-1,.2,2.89,2.89,0,0,1-2.84-2.69,2.44,2.44,0,0,1,.15-1,2.52,2.52,0,0,1,.55-.88,2.53,2.53,0,0,1,1.85-.79,2.86,2.86,0,0,1,2.82,2.7Z"/><path class="cls-7" d="M139.7,230.69a2.44,2.44,0,0,1-.15,1,2.52,2.52,0,0,1-1.39,1.47,2.66,2.66,0,0,1-1,.2,2.86,2.86,0,0,1-1.94-.79,2.83,2.83,0,0,1-.89-1.9,2.43,2.43,0,0,1,.14-1,2.58,2.58,0,0,1,.54-.88,2.53,2.53,0,0,1,1.85-.79,2.89,2.89,0,0,1,1.95.79A2.92,2.92,0,0,1,139.7,230.69Z"/><path class="cls-7" d="M148,230.69a2.55,2.55,0,0,1-2.56,2.69,2.78,2.78,0,0,1-1.95-.79,2.87,2.87,0,0,1-.88-1.9,2.61,2.61,0,0,1,.14-1,3.07,3.07,0,0,1,.54-.88,2.69,2.69,0,0,1,.86-.59,2.66,2.66,0,0,1,1-.2,2.92,2.92,0,0,1,2,.79A3,3,0,0,1,148,230.69Z"/><path class="cls-7" d="M156.25,230.69a2.27,2.27,0,0,1-.14,1,2.49,2.49,0,0,1-.54.88,2.54,2.54,0,0,1-1.87.79,2.89,2.89,0,0,1-2.84-2.69,2.44,2.44,0,0,1,.15-1,2.52,2.52,0,0,1,.55-.88,2.53,2.53,0,0,1,1.85-.79,2.86,2.86,0,0,1,1.94.79A2.8,2.8,0,0,1,156.25,230.69Z"/><path class="cls-7" d="M164.54,230.69a2.44,2.44,0,0,1-.15,1,2.49,2.49,0,0,1-.54.88,2.54,2.54,0,0,1-1.87.79,2.86,2.86,0,0,1-1.94-.79,2.83,2.83,0,0,1-.89-1.9,2.43,2.43,0,0,1,.14-1,2.6,2.6,0,0,1,1.39-1.47,2.66,2.66,0,0,1,1-.2,2.87,2.87,0,0,1,2.84,2.7Z"/><path class="cls-7" d="M172.82,230.69a2.55,2.55,0,0,1-2.56,2.69,2.86,2.86,0,0,1-2.83-2.69,2.43,2.43,0,0,1,.14-1,2.6,2.6,0,0,1,1.39-1.47,2.66,2.66,0,0,1,1-.2,2.82,2.82,0,0,1,2.86,2.67Z"/><path class="cls-8" d="M262.4,139.18c.2.3.3.45.43.67l.35.58c.23.39.44.79.63,1.17.4.79.79,1.58,1.11,2.37a42.73,42.73,0,0,1,1.7,4.8,50.23,50.23,0,0,1,1.87,9.88l.06.62a2.41,2.41,0,0,1,0,.38v.42a10,10,0,0,1-.1,1.64,13.57,13.57,0,0,1-.78,2.94,20,20,0,0,1-2.73,4.72,33.82,33.82,0,0,1-7.33,6.95l-2.18-2.55a44.87,44.87,0,0,0,5.23-7.24,16.26,16.26,0,0,0,1.58-3.72,7.43,7.43,0,0,0,.26-1.69,4.45,4.45,0,0,0,0-.73v-.17a.81.81,0,0,0,0-.22l-.1-.55a61.31,61.31,0,0,0-2.14-8.67c-.46-1.41-1-2.77-1.58-4.1-.27-.67-.59-1.33-.9-2l-.49-.93-.24-.43-.21-.35Z"/><path class="cls-8" d="M255.07,176.33l2.86,6,2.26-5.1s-2-4.41-4.73-4Z"/><path class="cls-8" d="M260,182.66l2.27-3.72-2-1.68-2.26,5.1Z"/><path class="cls-2" d="M247.14,321.68a8.58,8.58,0,0,0,1.75-.24.18.18,0,0,0,.07-.05v-.07a.14.14,0,0,0,0-.09.11.11,0,0,0-.06-.07c-.22-.15-2.22-1.45-3-1.1a.52.52,0,0,0-.21.18.62.62,0,0,0-.09.26.79.79,0,0,0,0,.43.77.77,0,0,0,.23.36A1.87,1.87,0,0,0,247.14,321.68Zm1.3-.47a3.14,3.14,0,0,1-2.37-.11.61.61,0,0,1-.15-.26.76.76,0,0,1,0-.3.18.18,0,0,1,.13-.19C246.47,320.16,247.63,320.72,248.44,321.21Z"/><path class="cls-2" d="M248.85,321.44h.08v-.06a.11.11,0,0,0,0-.08c0-.08,0-2-.73-2.62a.73.73,0,0,0-.31-.17.69.69,0,0,0-.35,0,.52.52,0,0,0-.34.12.56.56,0,0,0-.19.31c-.15.75,1,2.17,1.68,2.53Zm-1.13-2.67h.19l.16.1a3.57,3.57,0,0,1,.61,2.08c-.63-.5-1.38-1.57-1.28-2,0-.07,0-.17.25-.19Z"/><path class="cls-2" d="M239.7,318.46a.11.11,0,0,0,0-.08.11.11,0,0,0,0-.08.07.07,0,0,0-.06-.07h-.08c-.32,0-3.15-.13-3.8.56v0a.64.64,0,0,0-.1.24.53.53,0,0,0,0,.25.84.84,0,0,0,.22.36.82.82,0,0,0,.36.21c.91.29,2.53-.74,3.41-1.38ZM236,319c.35-.38,1.91-.48,3.08-.47-1.22.84-2.24,1.23-2.75,1.08a.61.61,0,0,1-.24-.15.59.59,0,0,1-.14-.23v-.1a.17.17,0,0,1,0-.1Z"/><path class="cls-2" d="M239.7,318.46a.11.11,0,0,0,0-.08v-.08a4.37,4.37,0,0,0-2-1.89,1.23,1.23,0,0,0-.9.11c-.38.22-.4.49-.35.65.2.73,2.21,1.38,3.08,1.37h.08A.11.11,0,0,0,239.7,318.46Zm-2.83-1.57.15-.11a.6.6,0,0,1,.32-.12.65.65,0,0,1,.34,0,3.62,3.62,0,0,1,1.62,1.5c-.94-.11-2.36-.68-2.48-1.12a.21.21,0,0,1,0-.11.22.22,0,0,1,.05-.08Z"/><path class="cls-8" d="M248.38,116.1c-.79,3.94-2.5,12.45.24,15.07,0,0-1.07,3.94-8.35,3.94-8,0-3.82-3.94-3.82-3.94,4.37-1,4.26-4.29,3.49-7.33Z"/><path class="cls-7" d="M235,106.86a.33.33,0,0,0,.14,0l.1-.07.06-.11a.24.24,0,0,0,0-.12.29.29,0,0,0,0-.13A3.1,3.1,0,0,0,233,104.7a.31.31,0,0,0-.34.28h0a.32.32,0,0,0,.06.23.33.33,0,0,0,.21.11,2.45,2.45,0,0,1,1.06.49,2.37,2.37,0,0,1,.72.91.43.43,0,0,0,.12.11A.32.32,0,0,0,235,106.86Z"/><path class="cls-8" d="M232.66,110.32a14.27,14.27,0,0,1-2.31,3.15,2.31,2.31,0,0,0,1.86.59Z"/><path class="cls-7" d="M233.25,109.43c-.07.53-.4.92-.74.88s-.58-.5-.52-1,.41-.92.79-.88S233.3,108.9,233.25,109.43Z"/><path class="cls-7" d="M232.88,108.44l-1.21-.48S232.18,109,232.88,108.44Z"/><path class="cls-8" d="M246.66,317l-6.43,1.5-3.91-14.78,6.43-1.5Z"/><path class="cls-8" d="M256.52,321.28h-6.59l.51-15.28h6.61Z"/><path class="cls-7" d="M249.4,320.52h7.42a.56.56,0,0,1,.35.13.47.47,0,0,1,.17.33l.85,5.86a1.09,1.09,0,0,1-.05.44,1,1,0,0,1-.22.38,1.08,1.08,0,0,1-.79.35c-2.58,0-3.83-.19-7.09-.19-2,0-4.94.21-7.71.21s-2.92-2.74-1.76-3c5.17-1.12,6-2.65,7.73-4.11A1.71,1.71,0,0,1,249.4,320.52Z"/><path class="cls-7" d="M239.66,317.48l6.74-3.1a.55.55,0,0,1,.36,0,.51.51,0,0,1,.3.22l3.22,5a.91.91,0,0,1,.14.42.82.82,0,0,1,0,.44,1,1,0,0,1-.22.38.92.92,0,0,1-.35.26c-2.36,1-3.56,1.43-6.52,2.79-1.82.84-5.52,2.76-8,3.94s-3.79-1.26-2.85-2c4.23-3.16,5.45-5.42,6.42-7.47A1.64,1.64,0,0,1,239.66,317.48Z"/><path class="cls-9" d="M236.32,303.68l2.1,7.93,6.35-1.81-2-7.62Z"/><path class="cls-9" d="M257,306h-6.6l-.26,7.88h6.6Z"/><path class="cls-10" d="M260,132.67c2.74.6,5.67,10.46,5.67,10.46L258,151.38s-6.44-9.26-5.12-12.67S256.77,132,260,132.67Z"/><path class="cls-11" d="M255.66,139c-1.39-1.27-2.33-.89-3,.12-.63,2.93,3.1,9.07,4.61,11.39C258,147.69,258.8,141.84,255.66,139Z"/><path class="cls-10" d="M225.3,132.87s-3.16,1.1,3.15,39.83h26.79c-.45-10.91-.47-17.64,4.73-40a77.88,77.88,0,0,0-11.39-1.5,85.23,85.23,0,0,0-12.17,0C231.22,131.65,225.3,132.87,225.3,132.87Z"/><path class="cls-11" d="M225.05,147.73c.17,1.88.4,4,.7,6.4,2.2-2,4-7.61,3.34-10.89A19,19,0,0,0,225.05,147.73Z"/><path class="cls-8" d="M227.92,141.84A117.08,117.08,0,0,1,223,152.52a65.17,65.17,0,0,1-6.3,10.24l-.51.62-.25.31c-.08.1-.16.2-.29.34a9.1,9.1,0,0,1-1.58,1.39,13,13,0,0,1-3.29,1.64,24.1,24.1,0,0,1-6.3,1.12,47,47,0,0,1-12-1.07l.43-3.31c1.82,0,3.71,0,5.52-.15a44.76,44.76,0,0,0,5.41-.6,21.27,21.27,0,0,0,4.83-1.35,7.43,7.43,0,0,0,1.75-1.06,3.64,3.64,0,0,0,.54-.57l.16-.21.18-.26.37-.52a77,77,0,0,0,5.27-9.54c1.58-3.35,3.15-6.83,4.59-10.25Z"/><path class="cls-10" d="M225.3,132.87c-3.29.78-7.32,9.8-7.32,9.8l6.81,10s9.06-11.42,8-14.91S229.31,131.89,225.3,132.87Z"/><path class="cls-8" d="M194.89,164.31l-5.68-2.63-.56,5.65s4.72,1.4,7.09,0Z"/><path class="cls-8" d="M185.82,161.12l-.55,4.3,3.38,1.91.56-5.65Z"/><path class="cls-8" d="M251.23,109.82c-1.21,6.43-1.58,9.19-5.27,12.11-5.51,4.4-13.2,1.52-13.94-5.15-.67-6,1.41-15.52,8.08-17.33a8.9,8.9,0,0,1,11.13,10.37Z"/><path class="cls-7" d="M237.08,111.17c-.37,3.29-.51,11.82,6.71,12.09,8.83.32,11.48-7.23,10.69-10.25,4.6-3.74,5.27-10.18.1-15.1s-16.55-2.18-19.7,2.62C230.88,106.48,237.08,111.17,237.08,111.17Z"/><path class="cls-2" d="M245.93,99.82c-.42-3.46-.09-5.85,3.16-5.85s7.67,1.17,9.29,4.49,1.76,8.51-2.77,8S246.45,104,245.93,99.82Z"/><path class="cls-7" d="M251,99c-.78-4.13,2.91-15.76,11.89-16.55,4.16-.35,6.08,4.12,3.94,4.86,3.94,0,6.46,5.16,2.79,5.94,2.9,1.86,2.18,5.68-2,7.55C264.54,102.21,252,104.71,251,99Z"/><path class="cls-7" d="M260.55,103.43c-2.89,0-5.91-.43-7.78-1.68a3.85,3.85,0,0,1-1.29-1.28,3.9,3.9,0,0,1-.57-1.72.24.24,0,0,1,.05-.14.27.27,0,0,1,.14-.07h.07a.09.09,0,0,1,.07,0v.14a3.56,3.56,0,0,0,.51,1.55,3.39,3.39,0,0,0,1.17,1.15c3.57,2.37,11.82,1.58,14.39.79,2.22-.72,3.72-2.13,4-3.76A3.26,3.26,0,0,0,270,95.26V95a.15.15,0,0,1,.13,0,.17.17,0,0,1,.14,0,3.66,3.66,0,0,1,1.46,3.58c-.32,1.78-1.92,3.29-4.29,4.06A25.83,25.83,0,0,1,260.55,103.43Z"/><path class="cls-8" d="M235.08,110.32a4.83,4.83,0,0,0-.85,3.55c.26,1.66,1.87,1.77,3,.71s2.18-3,1.32-4.33a2,2,0,0,0-.77-.71,2.17,2.17,0,0,0-1-.24,2.07,2.07,0,0,0-1,.29A2,2,0,0,0,235.08,110.32Z"/><path class="cls-12" d="M235.52,172.7s3.83,45.3,7.81,70.83c3.21,20.62,5.75,68.83,5.75,68.83h9s3.19-46.76,1.57-67.16c-4.12-51.61,5.08-55.82-4.39-72.49Z"/><path class="cls-11" d="M246.85,189.82a44.27,44.27,0,0,0-8.5,12.83c1.05,10.18,2.3,21.48,3.62,31.38A87,87,0,0,0,246.85,189.82Z"/><path class="cls-12" d="M229.23,172.41s-8.32,49.48-9.63,71.78c3.27,20.63,16.62,64.22,16.62,64.22l8.18-3s-4.53-47.51-9.4-60.51c11.09-37.33,19.23-46.77,16.86-72.2C246.13,172.7,229.23,172.41,229.23,172.41Z"/><path class="cls-7" d="M235.12,310.58l11.06-3-.63-4.41-11.84,3.2Z"/><path class="cls-7" d="M247.84,312.54h11.47l.59-4-12.12-.41Z"/><path class="cls-2" d="M255.66,171.12l1.2,2.4c.1.19-.12.38-.43.38H228.32c-.24,0-.45-.11-.46-.27l-.25-2.37c0-.16.2-.3.46-.3h27.15a1,1,0,0,1,.24,0A.53.53,0,0,1,255.66,171.12Z"/><path class="cls-13" d="M255.66,171.12l1.2,2.4c.1.19-.12.38-.43.38H228.32c-.24,0-.45-.11-.46-.27l-.25-2.37c0-.16.2-.3.46-.3h27.15a1,1,0,0,1,.24,0A.53.53,0,0,1,255.66,171.12Z"/><path class="cls-2" d="M252,174.15h.73c.14,0,.25-.08.25-.17l-.35-3.15c0-.09-.13-.17-.28-.17h-.73c-.14,0-.25.08-.24.17l.34,3.15C251.74,174.09,251.87,174.15,252,174.15Z"/><path class="cls-2" d="M242.25,151.2a.41.41,0,0,1-.24-.08.38.38,0,0,1-.14-.21c-2.57-9.5-7.88-17.34-10.46-18.52a.92.92,0,0,0-.67-.11.44.44,0,0,1-.15.05h-.16a.42.42,0,0,1-.14-.09.27.27,0,0,1-.09-.12.43.43,0,0,1,0-.16.43.43,0,0,1,0-.16.38.38,0,0,1,.09-.13.42.42,0,0,1,.14-.09,1.54,1.54,0,0,1,1.32.12c2.73,1.29,8.12,9,10.81,18.73,1.93,0,4.91-.26,5.64-.33.9-1.07,7.5-9.33,5-18.37v-.15a.33.33,0,0,1,0-.14.4.4,0,0,1,.1-.12l.14-.07a.51.51,0,0,1,.3,0,.4.4,0,0,1,.18.24c2.75,10-5.22,19.12-5.31,19.21a.31.31,0,0,1-.11.09.33.33,0,0,1-.14,0S244.45,151.2,242.25,151.2Z"/><path class="cls-2" d="M255.31,156.76c-4.29-8-6.05-8.61-6.81-11.19a13.07,13.07,0,0,1,2.44-3.94c-.52-.15-1.64-.37-2.37-.51.08-.35.17-.7.25-1a7.48,7.48,0,0,0-2.36.11v-.79a10.41,10.41,0,0,0-3.05-.19c.08.37.17.75.26,1.13-.79.15-2,.4-2.57.56a11.46,11.46,0,0,1,2.41,4.39c-2.32,4-11.32,29.56,3.32,31.52S259.6,164.82,255.31,156.76Z"/><path class="cls-14" d="M255.31,156.76c-4.29-8-6.05-8.61-6.81-11.19a13.07,13.07,0,0,1,2.44-3.94c-.52-.15-1.64-.37-2.37-.51.08-.35.17-.7.25-1a7.48,7.48,0,0,0-2.36.11v-.79a10.41,10.41,0,0,0-3.05-.19c.08.37.17.75.26,1.13-.79.15-2,.4-2.57.56a11.46,11.46,0,0,1,2.41,4.39c-2.32,4-11.32,29.56,3.32,31.52S259.6,164.82,255.31,156.76Z"/><path class="cls-2" d="M242.91,144.53a5.08,5.08,0,0,0-.12,1.23c0,.3.79.49,1.66.58s4.55.23,4.43-.18.18-1,.2-1.32-1.46-.36-2.7-.31S243.15,144.09,242.91,144.53Z"/><path class="cls-2" d="M234.39,174.15h.72c.15,0,.26-.08.25-.17l-.34-3.15c0-.09-.14-.17-.28-.17H234c-.14,0-.25.08-.24.17l.34,3.15C234.11,174.09,234.24,174.15,234.39,174.15Z"/></svg>