<svg id="레이어_1" data-name="레이어 1" xmlns="http://www.w3.org/2000/svg" viewBox="0 0 394 394"><defs><style>.cls-1{fill:#f1f4f3;}.cls-2{fill:#e8edeb;}.cls-3{fill:#0046ff;}.cls-4,.cls-5{opacity:0.2;}.cls-10,.cls-16,.cls-17,.cls-18,.cls-22,.cls-5{fill:#001e2b;}.cls-10,.cls-11,.cls-14,.cls-16,.cls-17,.cls-18,.cls-20,.cls-22,.cls-23,.cls-24,.cls-5{isolation:isolate;}.cls-11,.cls-23,.cls-24,.cls-6{fill:#fff;}.cls-7{fill:#3d4f58;}.cls-8{fill:#21313c;}.cls-14,.cls-9{fill:#637381;}.cls-10{opacity:0.15;}.cls-11{opacity:0.7;}.cls-12{fill:#f0f0f0;}.cls-13{fill:#c1c7c6;}.cls-14,.cls-20{opacity:0.8;}.cls-15{fill:#ebebeb;}.cls-16,.cls-21,.cls-23{opacity:0.3;}.cls-17,.cls-24{opacity:0.4;}.cls-18{opacity:0.5;}.cls-19,.cls-20{fill:#fafafa;}.cls-22{opacity:0.1;}.cls-25{fill:#ff8b7b;}.cls-26{fill:#f5f5f5;}.cls-27{fill:#f28f8f;}</style></defs><title>image</title><path class="cls-1" d="M196.85,380.22c100.77,0,182.45-47.16,182.45-105.34S297.62,169.54,196.85,169.54,14.4,216.7,14.4,274.88,96.09,380.22,196.85,380.22Z"/><path class="cls-2" d="M255.23,302.65a9.88,9.88,0,0,0-1.46-5.13c-.19-.33-.4-.64-.62-.95v-.05a9,9,0,0,0-.67-.83l-.07-.07a10.09,10.09,0,0,0-.74-.72h-.07a6.57,6.57,0,0,0-.79-.6l-.47-.26-.21-.1-.25-.11-.34-.11h-.1l-.41-.08a2.59,2.59,0,0,0-1.5.24c-4.17,2.09-28.19,17.37-39.25,24.26l-5.47,3.33a1.07,1.07,0,0,0-.41.38v.06c-.05.08-.09.16-.13.24a.75.75,0,0,0-.05.16,1.72,1.72,0,0,0-.07.21v.14l-.9.5-.79.44a31.76,31.76,0,0,0-6.24-4.63c-7.58-4.37-17.62-6.78-28.27-6.78s-20.7,2.41-28.28,6.78c-7.88,4.53-12.16,10.65-12.16,17.23s4.31,12.7,12.16,17.24c7.58,4.37,17.62,6.77,28.28,6.77s20.69-2.4,28.27-6.77c7.88-4.54,12.17-10.66,12.17-17.24a15.88,15.88,0,0,0-2.57-8.51l.72-.39a1.79,1.79,0,0,0,.77.28,1.73,1.73,0,0,0,.81-.13c3.75-2.07,40.31-17.65,47.79-21.66A3.67,3.67,0,0,0,255.23,302.65Zm-64.61,44.71c-6.54,3.77-15.36,5.85-24.82,5.85s-18.27-2.08-24.81-5.85c-5.62-3.25-8.72-7.24-8.72-11.25s3.1-8,8.72-11.24c6.54-3.78,15.35-5.86,24.81-5.86s18.28,2.08,24.82,5.86c5.62,3.24,8.71,7.23,8.71,11.24s-3.12,8-8.75,11.25Z"/><path class="cls-2" d="M260.83,210.08l-37.09-21.46a7.58,7.58,0,0,0-6.82,0L28.52,297.37c-1.89,1.08-1.89,2.85,0,3.94l37.09,21.46a7.58,7.58,0,0,0,6.82,0L143,282l10.86,6.31c5.74,3.31,15.06,3.31,20.81,0L207,269.76c5.75-3.31,5.75-8.66,0-12l-10.85-6.31L260.81,214C262.7,212.93,262.7,211.18,260.83,210.08Z"/><path class="cls-2" d="M323,311.66c20.09,0,36.37-9.4,36.37-21s-16.28-21-36.37-21-36.36,9.4-36.36,21S303,311.66,323,311.66Z"/><path class="cls-3" d="M343.7,267c0-4.92-1-14,3.15-22.5,3-6.18,8.42-12.16,13.45-11.56,4.67.55,5.1,7.74.62,12.67s-10.16,11.74-11.41,22.62l-3.22,8.09Z"/><g class="cls-4"><path class="cls-5" d="M343.7,267c0-4.92-1-14,3.15-22.5,3-6.18,8.42-12.16,13.45-11.56,4.67.55,5.1,7.74.62,12.67s-10.16,11.74-11.41,22.62l-3.22,8.09Z"/></g><path class="cls-6" d="M345.37,270.41a.37.37,0,0,0,.29-.36c-.57-14,4-25.61,13.16-33.59a.21.21,0,0,0,.08-.11.29.29,0,0,0,0-.13.29.29,0,0,0,0-.13.34.34,0,0,0-.06-.12l-.11-.08h-.26a.24.24,0,0,0-.11.06c-9.35,8.13-14,19.93-13.4,34.15a.32.32,0,0,0,.11.24.36.36,0,0,0,.24.09Z"/><path class="cls-3" d="M342.78,284.55a17.41,17.41,0,0,0,8.67,2.41c5.27.12,7.22-2.65,7.22-2.65s-2.69-4.56-5.8-5.52a29.27,29.27,0,0,1,9.46,2.47s3.15-.37,3.77-5.35c0,0-2.26-2.64-8.73-3.36a20.91,20.91,0,0,1,9.36-.79c.43.11,1.35-6.31,1.5-9.28s-1-2.75-3.31-3.06-10,.35-11.22,1.77-1.38,5.72-1.38,5.72a8.42,8.42,0,0,1-1.62-4.37,8.06,8.06,0,0,0-4.73.79c-2.36,1.21-3.15,2.18-3.28,4a18.33,18.33,0,0,0,.47,6.72s-2.18-3.52-2.08-6.58a34.39,34.39,0,0,0-2.24,4.61C337.81,274.78,339,281.26,342.78,284.55Z"/><path class="cls-6" d="M342.89,284.88a.28.28,0,0,0,.15-.08.42.42,0,0,0,.09-.14c3-9.2,17.1-21.28,22.5-23.12a.41.41,0,0,0,.11-.07.18.18,0,0,0,.09-.23v-.14a.41.41,0,0,0-.07-.11.28.28,0,0,0-.1-.09h-.27c-5.51,1.85-19.87,14.19-22.93,23.55a.42.42,0,0,0,0,.27.41.41,0,0,0,.2.17A.36.36,0,0,0,342.89,284.88Z"/><path class="cls-7" d="M174.68,285.26l27.88-16.13c2.87-1.65,4.3-3.83,4.3-6v-3.88l-26.23-14.88a6.22,6.22,0,0,1-2-2.08,6.1,6.1,0,0,1-.81-2.73V205.15l-48.63,28.14v34.36a6.18,6.18,0,0,0,.81,2.74,6.28,6.28,0,0,0,2,2.07l21.86,12.8C159.62,288.53,168.94,288.53,174.68,285.26Z"/><path class="cls-8" d="M140.88,273.73v3.87L132,272.46a6.16,6.16,0,0,1-2.78-4.81V233.29l9.28-5.35c.19,2.36.4,4.79.59,7.16l-6.5,3.76v26.85a6.12,6.12,0,0,0,2.77,4.81Z"/><path class="cls-9" d="M132.55,265.72a6.18,6.18,0,0,0,.81,2.74,6.38,6.38,0,0,0,2,2.07l18.55,10.79c5.75,3.31,15.06,3.31,20.81,0l27.89-16.12c5.75-3.32,5.75-8.67,0-12L184,242.39a6.28,6.28,0,0,1-2-2.07,6.15,6.15,0,0,1-.82-2.74V210.73L132.5,238.87Z"/><path class="cls-10" d="M189.66,245.66,184,242.4a6.07,6.07,0,0,1-2.82-4.81V210.73L132.5,238.87v26.85a6.18,6.18,0,0,0,.81,2.74,6.38,6.38,0,0,0,2,2.07l5.56,3.2Z"/><path class="cls-7" d="M206.87,259.25v3.88c0,2.18-1.44,4.34-4.31,6l-27.88,16.11a20.84,20.84,0,0,1-9.93,2.46v-3.86a20.84,20.84,0,0,0,9.93-2.46l27.88-16.13C205.43,263.57,206.87,261.39,206.87,259.25Z"/><path class="cls-9" d="M54.37,302.8a7.5,7.5,0,0,0,6.72-.13L249.43,193.93a7.78,7.78,0,0,0,2.45-2.59,7.62,7.62,0,0,0,1-3.42V23.14a7.4,7.4,0,0,0-3.25-5.87,7.41,7.41,0,0,0-6.72.11L54.58,126.13a7.85,7.85,0,0,0-2.45,2.58,7.66,7.66,0,0,0-1,3.42V296.91a7.47,7.47,0,0,0,3.24,5.89Z"/><path class="cls-7" d="M61.09,302.66,249.43,194a7.88,7.88,0,0,0,2.45-2.59,7.62,7.62,0,0,0,1-3.42V23.14c0-2.21-1.57-3.11-3.46-2L61.13,129.89a7.56,7.56,0,0,0-2.45,2.58,7.92,7.92,0,0,0-1,3.42V300.66C57.63,302.88,59.18,303.77,61.09,302.66Z"/><path class="cls-3" d="M64.14,278.89V138a4.61,4.61,0,0,1,2-3.55L244.28,31.61c1.14-.66,2.08-.12,2.08,1.2V173.7a4.64,4.64,0,0,1-.6,2.05,4.48,4.48,0,0,1-1.48,1.55L66.19,280.1C65.07,280.76,64.14,280.22,64.14,278.89Z"/><path class="cls-11" d="M64.14,278.89V138a4.61,4.61,0,0,1,2-3.55L244.28,31.61c1.14-.66,2.08-.12,2.08,1.2V173.7a4.64,4.64,0,0,1-.6,2.05,4.48,4.48,0,0,1-1.48,1.55L66.19,280.1C65.07,280.76,64.14,280.22,64.14,278.89Z"/><path class="cls-3" d="M154.88,241.64a2,2,0,0,1-1-.27,2.69,2.69,0,0,1-.91-1.07,2.73,2.73,0,0,1-.24-1.38,7.5,7.5,0,0,1,3.45-6,2.35,2.35,0,0,1,1.31-.54,2.41,2.41,0,0,1,1.39.3,2.38,2.38,0,0,1,1.15,2.45,7.52,7.52,0,0,1-3.45,6A3.31,3.31,0,0,1,154.88,241.64Zm2.91-8.39a2.55,2.55,0,0,0-1.25.39,6.83,6.83,0,0,0-3.06,5.3,1.56,1.56,0,0,0,0,1,1.59,1.59,0,0,0,.68.79,1.51,1.51,0,0,0,1,.19,1.49,1.49,0,0,0,.92-.49,6.78,6.78,0,0,0,3.06-5.29,2,2,0,0,0-.79-1.78,1.36,1.36,0,0,0-.56-.11Z"/><path class="cls-12" d="M277.27,58.12,93.9,163.9V299a2.33,2.33,0,0,0,1.18,2,2.25,2.25,0,0,0,1.16.32,2.33,2.33,0,0,0,1.16-.3l3.28-1.88,173.17-99.85a7.51,7.51,0,0,0,2.42-2.56,7.42,7.42,0,0,0,1-3.37Z"/><path class="cls-13" d="M276.49,59.49v133.9a6.76,6.76,0,0,1-3,5.24L100.28,298.49,97,300.37a1.56,1.56,0,0,1-1.87-.23,1.5,1.5,0,0,1-.35-.51,1.58,1.58,0,0,1-.12-.61V164.33l181.8-104.8Zm.77-1.33L93.9,163.9V299a2.37,2.37,0,0,0,2.36,2.37,2.29,2.29,0,0,0,1.17-.32l3.27-1.88L273.85,199.3a7.51,7.51,0,0,0,2.42-2.56,7.42,7.42,0,0,0,1-3.37V58.16Z"/><path class="cls-14" d="M272.92,55.62,89.53,161.35l4.37,2.52L277.27,58.12Z"/><path class="cls-15" d="M95.13,301.09a2.5,2.5,0,0,1-.9-.87,2.31,2.31,0,0,1-.33-1.2V163.9l-4.37-2.52V295.76a4.17,4.17,0,0,0,0,.5,3.68,3.68,0,0,0,.59,1.53,3.42,3.42,0,0,0,1.19,1.11l3.6,2.09.19.1Z"/><path class="cls-3" d="M89.53,161.41V152.3a3.73,3.73,0,0,1,.5-1.69,4,4,0,0,1,1.2-1.28l180-103.76a3.74,3.74,0,0,1,1.7-.41,3.78,3.78,0,0,1,1.71.41l.93.54a3.8,3.8,0,0,1,1.21,1.28,3.69,3.69,0,0,1,.5,1.68v9.12L93.9,163.9Z"/><path class="cls-16" d="M89.53,161.41V152.3a3.73,3.73,0,0,1,.5-1.69,4,4,0,0,1,1.2-1.28l180-103.76a3.74,3.74,0,0,1,1.7-.41,3.78,3.78,0,0,1,1.71.41l.93.54a3.8,3.8,0,0,1,1.21,1.28,3.69,3.69,0,0,1,.5,1.68v9.12L93.9,163.9Z"/><path class="cls-3" d="M93.9,154.81a3.69,3.69,0,0,1,.5-1.68,3.59,3.59,0,0,1,1.2-1.28l180-103.78c.94-.55,1.7-.11,1.7,1v9.14L93.9,163.9Z"/><path class="cls-17" d="M93.9,154.81a3.69,3.69,0,0,1,.5-1.68,3.59,3.59,0,0,1,1.2-1.28l180-103.78c.94-.55,1.7-.11,1.7,1v9.14L93.9,163.9Z"/><path class="cls-3" d="M94.39,153.12a3.57,3.57,0,0,0-.49,1.69v9.09l-4.36-2.51v-9.1a3.46,3.46,0,0,1,.5-1.68Z"/><path class="cls-18" d="M94.39,153.12a3.57,3.57,0,0,0-.49,1.69v9.09l-4.36-2.51v-9.1a3.46,3.46,0,0,1,.5-1.68Z"/><path class="cls-19" d="M269.27,57.78c0,1,.71,1.44,1.57.93a3.55,3.55,0,0,0,1.58-2.78c0-1-.72-1.43-1.58-.92a3.67,3.67,0,0,0-1.12,1.2A3.47,3.47,0,0,0,269.27,57.78Z"/><path class="cls-19" d="M262.87,61.46c0,1,.71,1.44,1.57.93A3.55,3.55,0,0,0,266,59.61c0-1-.72-1.43-1.58-.92a3.54,3.54,0,0,0-1.11,1.2A3.36,3.36,0,0,0,262.87,61.46Z"/><path class="cls-19" d="M256.46,65.18c0,1,.72,1.43,1.58.92a3.54,3.54,0,0,0,1.11-1.2,3.37,3.37,0,0,0,.46-1.58c0-1-.71-1.43-1.57-.92a3.67,3.67,0,0,0-1.12,1.2A3.49,3.49,0,0,0,256.46,65.18Z"/><path class="cls-19" d="M93.9,163.9V299a2.33,2.33,0,0,0,1.18,2,2.25,2.25,0,0,0,1.16.32,2.33,2.33,0,0,0,1.16-.3l3.28-1.88L140.74,276V136.91Z"/><path class="cls-19" d="M144,139.2V270.41l129.48-74.76V64.44Z"/><path class="cls-3" d="M130,152.77,100.13,170a2.32,2.32,0,0,0-.71.75,2.36,2.36,0,0,0-.29,1v3.11c0,.64.45.89,1,.57L130,158.19a2.32,2.32,0,0,0,.71-.75,2.36,2.36,0,0,0,.29-1v-3.11C131,152.71,130.57,152.45,130,152.77Z"/><path class="cls-20" d="M130,152.77,100.13,170a2.32,2.32,0,0,0-.71.75,2.36,2.36,0,0,0-.29,1v3.11c0,.64.45.89,1,.57L130,158.19a2.32,2.32,0,0,0,.71-.75,2.36,2.36,0,0,0,.29-1v-3.11C131,152.71,130.57,152.45,130,152.77Z"/><path class="cls-9" d="M136.67,154l-.87-.85a4,4,0,0,0,.27-1.41,1.72,1.72,0,0,0-.12-.84,1.67,1.67,0,0,0-.53-.67,1,1,0,0,0-.54-.13,1,1,0,0,0-.53.18,3.5,3.5,0,0,0-1,1.26,3.56,3.56,0,0,0-.35,1.6,1.6,1.6,0,0,0,.13.84,1.59,1.59,0,0,0,.53.67,1,1,0,0,0,.47.13,1.27,1.27,0,0,0,.6-.18,2.48,2.48,0,0,0,.79-.79l.73.7a.39.39,0,0,0,.1.08h.27l.11-.08a.2.2,0,0,0,.08-.12.17.17,0,0,0,0-.14.29.29,0,0,0,0-.13A.24.24,0,0,0,136.67,154Zm-2.32,0a.44.44,0,0,1-.19.07.31.31,0,0,1-.19,0c-.15-.08-.32-.37-.32-.91a2.83,2.83,0,0,1,1-2.26.44.44,0,0,1,.25-.08H135c.14.09.31.37.31.91a3.06,3.06,0,0,1-.25,1.27,2.83,2.83,0,0,1-.78,1Z"/><path class="cls-9" d="M99.86,184.6l-.67.38h-.07v-1.81a.11.11,0,0,1,0-.08V183l.67-.38h.07v1.82a.09.09,0,0,1,0,.07Z"/><path class="cls-9" d="M100.86,184l-.67.39s-.07,0-.07,0v-1.89a.06.06,0,0,1,0-.06l.67-.37h.07v2Z"/><path class="cls-9" d="M101.87,183.43l-.67.39h-.07v-1.95l.67-.39h.07v1.82a.09.09,0,0,1,0,.07A.06.06,0,0,1,101.87,183.43Z"/><path class="cls-9" d="M99.86,186.94l-.67.38h-.07v-1.81a.11.11,0,0,1,0-.08v-.07l.67-.38h.07v1.81a.11.11,0,0,1,0,.08Z"/><path class="cls-9" d="M100.86,186.35l-.67.39s-.07,0-.07-.06V184.8a.06.06,0,0,1,0-.06l.67-.35s.07,0,.07.05v1.82A.14.14,0,0,1,100.86,186.35Z"/><path class="cls-9" d="M101.87,185.77l-.67.39h-.07v-1.95l.67-.39h.07v1.82a.09.09,0,0,1,0,.07A.06.06,0,0,1,101.87,185.77Z"/><path class="cls-9" d="M100,193.12l-.78-.5v-.15L100,191c0-.07.11-.06.11,0v2C100.07,193.06,100,193.14,100,193.12Z"/><path class="cls-9" d="M99.62,192l1.09-.62v.51l-1.09.63c-.09.06-.17,0-.17-.16a.67.67,0,0,1,0-.2A.65.65,0,0,1,99.62,192Z"/><path class="cls-9" d="M100.91,191.26l.37-.21v.51l-.37.22Z"/><path class="cls-9" d="M102.28,190.7v1.9a.61.61,0,0,1,0,.19.4.4,0,0,1-.13.16c-.09.06-.17,0-.17-.16v-1.64l-.46.26v-.51l.63-.36S102.28,190.59,102.28,190.7Z"/><path class="cls-9" d="M100.29,197.38a3.44,3.44,0,0,0-.94,1.4,3.52,3.52,0,0,0-.2,1.67c.13,1,.71,1,.78,1.4,0,.06,0,.08.08.06l.73-.42a.1.1,0,0,0,.05-.06v-.07c.08-.61.82-1.34.82-2.82C101.65,197.42,101,196.87,100.29,197.38Z"/><path class="cls-9" d="M100.73,202.67l-.71.41s-.09,0-.09-.07v-.64a.17.17,0,0,1,0-.1.16.16,0,0,1,.06-.08l.71-.41s.09,0,.09.07v.75S100.75,202.65,100.73,202.67Z"/><path class="cls-9" d="M100.46,182a4.27,4.27,0,0,0-1.28,2.72,2.92,2.92,0,0,0,.18,1.49l-.24,1.24c0,.1,0,.15.1.09l.71-.79a1.06,1.06,0,0,0,.56,0,1,1,0,0,0,.48-.28,4.23,4.23,0,0,0,1.29-2.73C102.44,182,101.52,181.17,100.46,182Zm.25,4.06c-.65.38-1.19-.13-1.19-1.15a3.13,3.13,0,0,1,1.19-2.52c.67-.38,1.2.14,1.2,1.15a3.14,3.14,0,0,1-1.2,2.54Z"/><path class="cls-9" d="M100.46,206a4.27,4.27,0,0,0-1.28,2.72,2.92,2.92,0,0,0,.18,1.49l-.24,1.23c0,.11,0,.16.1.1l.71-.79a1.32,1.32,0,0,0,.56,0,1,1,0,0,0,.48-.29,4.36,4.36,0,0,0,1.29-2.73C102.44,206,101.52,205.09,100.46,206Zm.25,4.07c-.65.37-1.19-.14-1.19-1.15a3.15,3.15,0,0,1,1.19-2.53c.67-.37,1.2.14,1.2,1.15A3.16,3.16,0,0,1,100.71,210.07Z"/><path class="cls-9" d="M101.47,214.72a1.57,1.57,0,0,1-.16.74,1.68,1.68,0,0,1-.47.59c-.34.21-.63-.07-.63-.6a1.66,1.66,0,0,1,.63-1.33C101.19,213.92,101.47,214.19,101.47,214.72Z"/><path class="cls-9" d="M102.55,214.91a.93.93,0,0,1-.11.49.87.87,0,0,1-.31.4c-.23.14-.42-.05-.42-.4a1,1,0,0,1,.11-.5,1.16,1.16,0,0,1,.31-.39C102.36,214.38,102.55,214.56,102.55,214.91Z"/><path class="cls-9" d="M101.58,218.54l-1.51.86v-1.91a1.47,1.47,0,0,1,.15-.58,1.16,1.16,0,0,1,.4-.45l.41-.24c.29-.17.53,0,.53.41Z"/><path class="cls-9" d="M102.19,216l-.4.24v2.17l.78-.45v-1.69C102.56,216,102.39,215.91,102.19,216Z"/><path class="cls-9" d="M99.13,216.89c0,.35.19.54.42.4a1.07,1.07,0,0,0,.31-.39,1,1,0,0,0,.1-.49c0-.36-.18-.54-.41-.41a.94.94,0,0,0-.31.4A.93.93,0,0,0,99.13,216.89Z"/><path class="cls-9" d="M99.48,217.58l.41-.23v2.17l-.79.44v-1.68a.8.8,0,0,1,.11-.4A.86.86,0,0,1,99.48,217.58Z"/><path class="cls-13" d="M106.38,180.34l17.51-10.13c.47-.28.85-.08.85.43a1.76,1.76,0,0,1-.26.81,1.81,1.81,0,0,1-.59.61l-17.51,10.13c-.47.27-.85.08-.85-.43a1.92,1.92,0,0,1,.25-.81A1.75,1.75,0,0,1,106.38,180.34Z"/><path class="cls-13" d="M106.38,188.58l17.5-10.11c.47-.26.85-.07.85.44a1.8,1.8,0,0,1-.26.81,1.91,1.91,0,0,1-.59.61l-17.5,10.1c-.47.27-.85.08-.85-.44a2,2,0,0,1,.25-.81A1.91,1.91,0,0,1,106.38,188.58Z"/><path class="cls-13" d="M106.38,196.82l17.51-10.06c.47-.28.85-.08.85.42a1.76,1.76,0,0,1-.26.81,1.72,1.72,0,0,1-.59.61l-17.51,10.06c-.47.28-.85.08-.85-.43A1.75,1.75,0,0,1,106.38,196.82Z"/><path class="cls-13" d="M106.38,205.05l17.5-10.1c.47-.27.85-.08.85.43a1.76,1.76,0,0,1-.26.81,1.7,1.7,0,0,1-.59.6l-17.5,10.11c-.47.27-.85.08-.85-.43a1.92,1.92,0,0,1,.25-.81A1.94,1.94,0,0,1,106.38,205.05Z"/><path class="cls-13" d="M106.38,213.29l17.5-10.1c.47-.27.85-.08.85.43a1.88,1.88,0,0,1-.85,1.42l-17.5,10.08c-.47.27-.85.08-.85-.43a1.76,1.76,0,0,1,.26-.8A1.88,1.88,0,0,1,106.38,213.29Z"/><path class="cls-9" d="M109.58,220l17.51-10.11c.47-.27.85-.07.85.43a1.76,1.76,0,0,1-.26.81,1.72,1.72,0,0,1-.59.61l-17.51,10.1c-.47.28-.85.08-.85-.42a1.84,1.84,0,0,1,.26-.82A1.88,1.88,0,0,1,109.58,220Z"/><path class="cls-13" d="M109.58,225.58l17.51-10.1c.47-.28.85-.08.85.43a1.8,1.8,0,0,1-.26.81,1.88,1.88,0,0,1-.59.6l-17.51,10.11c-.47.27-.85.07-.85-.43a1.76,1.76,0,0,1,.26-.81A1.81,1.81,0,0,1,109.58,225.58Z"/><path class="cls-13" d="M109.58,231.14,127.09,221c.47-.27.85-.08.85.44a1.76,1.76,0,0,1-.26.8,1.81,1.81,0,0,1-.59.61L109.58,233c-.47.26-.85.07-.85-.44a1.8,1.8,0,0,1,.26-.81A2,2,0,0,1,109.58,231.14Z"/><path class="cls-13" d="M113,234.68l17.5-10.1c.48-.28.85-.08.85.43a1.75,1.75,0,0,1-.85,1.41L113,236.53c-.46.27-.85.07-.85-.43a1.88,1.88,0,0,1,.85-1.42Z"/><path class="cls-9" d="M108.9,239.46l1.43-2.5v-.25l-1.43-.87a.22.22,0,0,0-.17.22v3.37C108.74,239.55,108.84,239.59,108.9,239.46Z"/><path class="cls-13" d="M113,240.22l17.5-10.12c.48-.27.85-.08.85.43a1.79,1.79,0,0,1-.25.81,1.75,1.75,0,0,1-.6.61L113,242.07c-.46.28-.85.08-.85-.43a1.8,1.8,0,0,1,.26-.81A2,2,0,0,1,113,240.22Z"/><path class="cls-9" d="M108.9,245l1.43-2.5v-.26l-1.43-.87a.24.24,0,0,0-.17.23V245C108.74,245.12,108.84,245.13,108.9,245Z"/><path class="cls-13" d="M113,245.77l17.5-10.1c.48-.28.85-.08.85.43a1.79,1.79,0,0,1-.25.81,1.75,1.75,0,0,1-.6.61L113,247.62c-.46.27-.85.08-.85-.43a1.76,1.76,0,0,1,.26-.81A1.81,1.81,0,0,1,113,245.77Z"/><path class="cls-9" d="M108.9,250.58l1.43-2.51v-.25L108.9,247a.24.24,0,0,0-.17.23v3.37C108.74,250.66,108.84,250.68,108.9,250.58Z"/><path class="cls-13" d="M113,251.32l17.5-10.11c.48-.27.85-.07.85.43a1.81,1.81,0,0,1-.85,1.42L113,253.16c-.46.28-.85.08-.85-.42a1.76,1.76,0,0,1,.26-.81A1.72,1.72,0,0,1,113,251.32Z"/><path class="cls-9" d="M108.9,256.1l1.43-2.51v-.25l-1.43-.86a.21.21,0,0,0-.17.22v3.4C108.74,256.2,108.84,256.23,108.9,256.1Z"/><path class="cls-13" d="M113,256.89l17.5-10.1c.48-.27.85-.08.85.43a1.79,1.79,0,0,1-.25.81,1.75,1.75,0,0,1-.6.61L113,258.74c-.46.27-.85.08-.85-.43a1.76,1.76,0,0,1,.26-.81A1.81,1.81,0,0,1,113,256.89Z"/><path class="cls-9" d="M108.9,261.62l1.43-2.51v-.26L108.9,258a.24.24,0,0,0-.17.23v3.41C108.74,261.75,108.84,261.77,108.9,261.62Z"/><path class="cls-13" d="M113,262.4l17.5-10.1c.48-.27.85-.08.85.44a1.8,1.8,0,0,1-.85,1.41L113,264.26c-.46.26-.85.07-.85-.44a1.8,1.8,0,0,1,.26-.81A2,2,0,0,1,113,262.4Z"/><path class="cls-9" d="M108.9,267.2l1.43-2.52v-.25l-1.43-.87a.24.24,0,0,0-.17.23v3.34C108.74,267.3,108.84,267.31,108.9,267.2Z"/><path class="cls-13" d="M113,267.92l17.5-10.1c.48-.28.85-.08.85.42a1.81,1.81,0,0,1-.85,1.42L113,269.76c-.46.28-.85.08-.85-.43a1.8,1.8,0,0,1,.26-.81A1.88,1.88,0,0,1,113,267.92Z"/><path class="cls-9" d="M108.9,272.73l1.43-2.5V270l-1.43-.87c-.06-.05-.17.09-.17.22v3.37C108.74,272.84,108.84,272.86,108.9,272.73Z"/><path class="cls-13" d="M113,273.49l17.5-10.1c.48-.27.85-.08.85.43a1.81,1.81,0,0,1-.85,1.42L113,275.34c-.46.27-.85.08-.85-.43A1.88,1.88,0,0,1,113,273.49Z"/><path class="cls-9" d="M108.9,278.28l1.42-2.48c.05-.1.05-.22,0-.26l-1.43-.87c-.06,0-.16.1-.16.23v3.37C108.74,278.39,108.84,278.4,108.9,278.28Z"/><path class="cls-12" d="M148,157.19,205.53,124a1.87,1.87,0,0,0,.85-1.47V107.85c0-.55-.39-.79-.85-.49L148,140.56a1.81,1.81,0,0,0-.6.63,1.75,1.75,0,0,0-.25.84V156.7C147.15,157.24,147.53,157.47,148,157.19Z"/><path class="cls-9" d="M153,146.84l.38-1.57-.52.3v-.44l.84-.48v.45l-.38,1.58v.09l-.26.14h0Z"/><path class="cls-9" d="M154.45,144.2a.39.39,0,0,1,.23-.07.21.21,0,0,1,.15.07.31.31,0,0,1,.09.18,1.13,1.13,0,0,1,0,.26v.48a1,1,0,0,1-.09.58,1.28,1.28,0,0,1-.15.25,1.06,1.06,0,0,1-.23.19.48.48,0,0,1-.23.07.21.21,0,0,1-.15-.07A.37.37,0,0,1,154,146a1.13,1.13,0,0,1,0-.26v-.47a1.5,1.5,0,0,1,0-.3.75.75,0,0,1,.09-.29,1.28,1.28,0,0,1,.15-.25A.93.93,0,0,1,154.45,144.2Zm.19,1.09v-.65h-.15l-.08.08-.06.09v.9h.14a.41.41,0,0,0,.15-.17v-.26Z"/><path class="cls-9" d="M155.62,144.09v-.2a.29.29,0,0,0,0-.13l-.05-.09h-.2a.27.27,0,0,0-.12.09.42.42,0,0,0-.09.14.38.38,0,0,0,0,.15.38.38,0,0,0,0,.15v.21a.33.33,0,0,0,0,.14.14.14,0,0,0,0,.09h.09a.24.24,0,0,0,.12,0l.12-.1.08-.13a.44.44,0,0,0,.05-.15Z"/><path class="cls-9" d="M156.05,143.27h0l-.86,2.28.14-.08h0l.87-2.25-.15.09S156.07,143.26,156.05,143.27Z"/><path class="cls-9" d="M153,142.33l-.58-.89a11.27,11.27,0,0,0-1.36,3.68L152,145A8.54,8.54,0,0,1,153,142.33Z"/><path class="cls-9" d="M154.64,140.56v-1.5a6.34,6.34,0,0,0-2.21,2.36l.58.89A4.72,4.72,0,0,1,154.64,140.56Z"/><path class="cls-9" d="M151.86,146.44A7.72,7.72,0,0,1,152,145l-.93.08a9.25,9.25,0,0,0-.19,1.89,6.77,6.77,0,0,0,.19,1.68l.93-1A5.48,5.48,0,0,1,151.86,146.44Z"/><path class="cls-3" d="M158.21,141a3.24,3.24,0,0,0-1.37-2.11,2.28,2.28,0,0,0-1.12-.2,2.2,2.2,0,0,0-1.08.38v1.5a1.66,1.66,0,0,1,1.63-.11,2.17,2.17,0,0,1,.67.68,2.35,2.35,0,0,1,.34.89,5.74,5.74,0,0,1,.13,1.24,8.19,8.19,0,0,1-.13,1.4,9,9,0,0,1-1,2.71,5,5,0,0,1-1.63,1.77,1.61,1.61,0,0,1-1.63.12,2.48,2.48,0,0,1-.68-.69,2.18,2.18,0,0,1-.33-.89l-.93,1a3,3,0,0,0,1.36,2.1,2.1,2.1,0,0,0,1.13.21,2.2,2.2,0,0,0,1.08-.38,6.5,6.5,0,0,0,2.2-2.37,11.8,11.8,0,0,0,1.37-3.67,12.1,12.1,0,0,0,.18-1.9A7.87,7.87,0,0,0,158.21,141Z"/><path class="cls-9" d="M164,136.86l17.49-10.1c.47-.28.86-.08.86.42a1.84,1.84,0,0,1-.26.82,1.91,1.91,0,0,1-.6.6L164,138.69c-.47.27-.86.08-.86-.43a1.76,1.76,0,0,1,.26-.8A1.91,1.91,0,0,1,164,136.86Z"/><path class="cls-13" d="M164,140.59l30.3-17.5c.47-.27.85-.08.85.44a1.76,1.76,0,0,1-.26.8,1.81,1.81,0,0,1-.59.61L164,142.43c-.47.28-.86.08-.86-.43a1.76,1.76,0,0,1,.26-.81A1.72,1.72,0,0,1,164,140.59Z"/><path class="cls-12" d="M210.39,121.15,267.92,88a1.84,1.84,0,0,0,.6-.64,2,2,0,0,0,.25-.84V71.8c0-.54-.38-.79-.85-.49l-57.53,33.2a1.91,1.91,0,0,0-.85,1.48v14.67C209.56,121.2,209.94,121.42,210.39,121.15Z"/><path class="cls-9" d="M215.71,109.46a.73.73,0,0,1,.12-.58,1.19,1.19,0,0,1,.16-.23l.19-.16a.6.6,0,0,1,.19-.06.22.22,0,0,1,.16,0,.24.24,0,0,1,.12.14.57.57,0,0,1,0,.26.38.38,0,0,1,0,.15.33.33,0,0,1,0,.14v.26l-.34.9v0h0l-.27.15h0l.23-.61h-.17a.16.16,0,0,1-.13-.06.24.24,0,0,1-.1-.14A.65.65,0,0,1,215.71,109.46Zm.7-.4V109h-.06a.09.09,0,0,0-.07,0h-.08v.09a.31.31,0,0,0,0,.1v.2a0,0,0,0,0,0,0h.13l.07-.07.06-.08a.17.17,0,0,0,0-.1Z"/><path class="cls-9" d="M217.39,107.82a.34.34,0,0,1,.22-.07h.16a.5.5,0,0,1,.1.19,1,1,0,0,1,0,.25v.49a1.5,1.5,0,0,1,0,.3.79.79,0,0,1-.1.28.82.82,0,0,1-.16.25.79.79,0,0,1-.22.19.48.48,0,0,1-.23.07.21.21,0,0,1-.15-.07.4.4,0,0,1-.1-.18,1,1,0,0,1,0-.25v-.48a1.5,1.5,0,0,1,0-.3.88.88,0,0,1,.1-.3,1,1,0,0,1,.15-.24A1,1,0,0,1,217.39,107.82Zm.18,1.09a3.53,3.53,0,0,0,0-.46.21.21,0,0,0,0-.11.14.14,0,0,0,0-.09h-.14l-.08.08a.36.36,0,0,0-.07.1v.25a3.38,3.38,0,0,0,0,.45v.2h.15l.09-.07v-.11a.21.21,0,0,0,0-.11.29.29,0,0,0,0-.13Z"/><path class="cls-9" d="M218.6,107.51a.74.74,0,0,1,0,.21v.17l-.06.15a.83.83,0,0,1-.08.12.29.29,0,0,1-.12.1h-.2a.14.14,0,0,1,0-.09.33.33,0,0,1,0-.14.17.17,0,0,1,0-.1.21.21,0,0,1,0-.11.43.43,0,0,1,0-.16v-.15a.57.57,0,0,1,.08-.13.27.27,0,0,1,.12-.09.24.24,0,0,1,.12,0h.08a.15.15,0,0,1,.06.09Zm.4-.51v-.06h0l.14-.08-.86,2.25v.09l-.14.07Zm-.79,1h0v-.29a.17.17,0,0,0,0-.1h0a.14.14,0,0,0,0,.08.21.21,0,0,0,0,.11Zm1.16.08a.67.67,0,0,1,0,.2v.17a.47.47,0,0,1-.06.15l-.08.12a.32.32,0,0,1-.12.11.24.24,0,0,1-.12,0h0a.17.17,0,0,1,0-.1.29.29,0,0,1,0-.13.74.74,0,0,1,0-.21.43.43,0,0,1,0-.16v-.15a.57.57,0,0,1,.08-.13.4.4,0,0,1,.12-.1h.2a.24.24,0,0,1,.06.09V108Zm-.35.39v.1h0a.24.24,0,0,0,0-.12.49.49,0,0,0,0-.17.14.14,0,0,0,0-.09h0a.18.18,0,0,0,0,.07v.21Z"/><path class="cls-9" d="M217.57,104.22v-1.5a6.34,6.34,0,0,0-2.21,2.36l.57.89A4.83,4.83,0,0,1,217.57,104.22Z"/><path class="cls-3" d="M221.14,104.65a3.19,3.19,0,0,0-.46-1.2,3.28,3.28,0,0,0-.91-.91,2.16,2.16,0,0,0-1.12-.21,2.11,2.11,0,0,0-1.08.39v1.5a1.64,1.64,0,0,1,.8-.28,1.69,1.69,0,0,1,.83.16,2.29,2.29,0,0,1,.67.68,2.4,2.4,0,0,1,.34.9,5.17,5.17,0,0,1,.13,1.24,8.19,8.19,0,0,1-.13,1.4,8.76,8.76,0,0,1-1,2.71,4.92,4.92,0,0,1-1.63,1.76,1.64,1.64,0,0,1-.8.28,1.49,1.49,0,0,1-.83-.16,2.45,2.45,0,0,1-.68-.68,2.34,2.34,0,0,1-.33-.89,5.75,5.75,0,0,1-.14-1.24,7.3,7.3,0,0,1,.14-1.4,8.29,8.29,0,0,1,1-2.71l-.57-.89a11.24,11.24,0,0,0-1.37,3.67,10.11,10.11,0,0,0-.18,1.9,7.86,7.86,0,0,0,.18,1.68,3.21,3.21,0,0,0,.46,1.19,3.28,3.28,0,0,0,.91.91,2.22,2.22,0,0,0,2.2-.17,6.37,6.37,0,0,0,2.21-2.37,11.53,11.53,0,0,0,1.36-3.67,10.11,10.11,0,0,0,.18-1.9A6.84,6.84,0,0,0,221.14,104.65Z"/><path class="cls-9" d="M227,100.52l17.5-10.11c.46-.27.85-.08.85.43a1.88,1.88,0,0,1-.85,1.42L227,102.36c-.48.28-.86.08-.86-.43a1.76,1.76,0,0,1,.26-.81A1.91,1.91,0,0,1,227,100.52Z"/><path class="cls-13" d="M227,104.24l30.29-17.49c.48-.27.86-.08.86.43a1.76,1.76,0,0,1-.26.81,1.72,1.72,0,0,1-.6.6L227,106.09c-.48.27-.86.08-.86-.44a1.8,1.8,0,0,1,.26-.81A1.91,1.91,0,0,1,227,104.24Z"/><path class="cls-9" d="M153.85,161.22l12.28-7.09c.47-.28.85-.08.85.42a1.81,1.81,0,0,1-.85,1.42l-12.28,7.09c-.47.28-.85.08-.85-.43A1.82,1.82,0,0,1,153.85,161.22Z"/><path class="cls-13" d="M268,99.91v93.77a1,1,0,0,1-.14.45,1.26,1.26,0,0,1-.31.34l-119.61,69V169.73a1.2,1.2,0,0,1,.15-.45,1.15,1.15,0,0,1,.32-.34l1.49-.86a2.66,2.66,0,0,0,1.25-2.16v-5.4a1,1,0,0,1,.14-.45,1.15,1.15,0,0,1,.32-.34l17.17-9.91v5a1.15,1.15,0,0,0,.06.52,1.56,1.56,0,0,0,.26.45,1.31,1.31,0,0,0,.43.31,1.26,1.26,0,0,0,.51.11,1.57,1.57,0,0,0,.79-.22L268,99.92Zm.32-1a.64.64,0,0,0-.38.12l-97.52,56.3a.89.89,0,0,1-.38.12c-.29,0-.48-.23-.48-.61v-5.43c0-.39-.19-.61-.47-.61a.89.89,0,0,0-.38.12L151.2,159a2.15,2.15,0,0,0-.6.64,2,2,0,0,0-.25.85v5.42a1.79,1.79,0,0,1-.25.84,1.93,1.93,0,0,1-.61.63l-1.49.87a1.87,1.87,0,0,0-.85,1.47v94.13c0,.38.19.61.47.61a.64.64,0,0,0,.38-.12L267.92,195.1a1.87,1.87,0,0,0,.85-1.47V99.52c0-.38-.19-.6-.47-.6Z"/><path class="cls-13" d="M154.86,173.84a.87.87,0,0,1-.42-.1,1,1,0,0,1-.35-.39,1,1,0,0,1-.1-.51v-3.57a2.3,2.3,0,0,1,1.06-1.82l9.51-5.52a1,1,0,0,1,.48-.16,1,1,0,0,1,.51.1,1,1,0,0,1,.35.39,1.11,1.11,0,0,1,.1.51v3.57a2.3,2.3,0,0,1-1.06,1.82l-9.5,5.52A1.21,1.21,0,0,1,154.86,173.84Zm.58-5.7a1.35,1.35,0,0,0-.46.49,1.3,1.3,0,0,0-.2.64v3.57a.31.31,0,0,0,.05.21.29.29,0,0,0,.22-.06l9.51-5.48A1.66,1.66,0,0,0,165,167a1.37,1.37,0,0,0,.2-.65V162.8a.31.31,0,0,0,0-.21.29.29,0,0,0-.22.06Z"/><path class="cls-13" d="M156,169.6l6.21-3.59c.31-.18.56-.06.56.28a1.14,1.14,0,0,1-.17.54,1.1,1.1,0,0,1-.39.41l-6.21,3.6a.34.34,0,0,1-.56-.29,1.14,1.14,0,0,1,.17-.54A1.1,1.1,0,0,1,156,169.6Z"/><path class="cls-9" d="M163.64,165.42l.51.73a.1.1,0,0,0,.08-.05l.52-1.32v-.1l-1,.59a.17.17,0,0,0-.06.06A.16.16,0,0,0,163.64,165.42Z"/><path class="cls-3" d="M153.55,208.47c.46-.26.79,0,.79.48a1.72,1.72,0,0,1-.23.8,1.75,1.75,0,0,1-.56.62c-.46.26-.79,0-.79-.47a1.8,1.8,0,0,1,.23-.81A1.85,1.85,0,0,1,153.55,208.47Z"/><path class="cls-3" d="M160,201.08a.51.51,0,0,1,.83.47,1.81,1.81,0,0,1-.24.82,1.72,1.72,0,0,1-.59.61c-.45.26-.78.05-.78-.47a1.79,1.79,0,0,1,.22-.81A1.85,1.85,0,0,1,160,201.08Z"/><path class="cls-3" d="M166.35,197.39c.45-.26.79,0,.79.47a1.88,1.88,0,0,1-.22.8,1.81,1.81,0,0,1-.57.63.51.51,0,0,1-.82-.48,1.77,1.77,0,0,1,.24-.81A1.7,1.7,0,0,1,166.35,197.39Z"/><path class="cls-3" d="M172.75,195.31c.46-.26.79,0,.79.48a1.88,1.88,0,0,1-.22.8,1.78,1.78,0,0,1-.57.62c-.45.26-.79,0-.79-.47a1.93,1.93,0,0,1,.23-.81A1.85,1.85,0,0,1,172.75,195.31Z"/><path class="cls-3" d="M179.16,188.65c.46-.25.79,0,.79.49a1.72,1.72,0,0,1-.23.8,1.64,1.64,0,0,1-.56.61c-.45.27-.79.06-.79-.47a1.72,1.72,0,0,1,.23-.8A2,2,0,0,1,179.16,188.65Z"/><path class="cls-3" d="M185.56,186.3c.45-.26.79-.05.79.47a1.8,1.8,0,0,1-.23.81,1.75,1.75,0,0,1-.56.62c-.46.26-.79,0-.79-.47a1.92,1.92,0,0,1,.22-.81A1.78,1.78,0,0,1,185.56,186.3Z"/><path class="cls-3" d="M192,178.88c.45-.27.82-.06.82.47a1.77,1.77,0,0,1-.24.81,1.7,1.7,0,0,1-.58.61c-.45.27-.79,0-.79-.48a1.72,1.72,0,0,1,.23-.8A1.64,1.64,0,0,1,192,178.88Z"/><path class="cls-3" d="M198.36,177.06c.45-.26.79-.05.79.48a1.72,1.72,0,0,1-.23.8,2,2,0,0,1-.56.62c-.46.26-.79,0-.79-.48A1.85,1.85,0,0,1,198.36,177.06Z"/><path class="cls-3" d="M204.76,156.73c.46-.27.79,0,.79.48a1.72,1.72,0,0,1-.23.8,1.85,1.85,0,0,1-.56.62c-.46.26-.79.05-.79-.48A1.85,1.85,0,0,1,204.76,156.73Z"/><path class="cls-3" d="M211.18,167.84c.45-.26.79-.05.79.48a1.85,1.85,0,0,1-.79,1.42.52.52,0,0,1-.83-.48,2,2,0,0,1,.25-.81A1.87,1.87,0,0,1,211.18,167.84Z"/><path class="cls-3" d="M217.57,167.84c.45-.26.78-.05.78.48a1.8,1.8,0,0,1-.78,1.42c-.46.26-.79,0-.79-.48a1.88,1.88,0,0,1,.22-.8A1.78,1.78,0,0,1,217.57,167.84Z"/><path class="cls-3" d="M224,167.84c.46-.26.79-.05.79.48a1.72,1.72,0,0,1-.23.8,1.67,1.67,0,0,1-.56.62c-.45.26-.78,0-.78-.48a1.88,1.88,0,0,1,.22-.8A1.85,1.85,0,0,1,224,167.84Z"/><path class="cls-3" d="M230.37,156.73c.45-.27.79,0,.79.48a1.72,1.72,0,0,1-.23.8,1.85,1.85,0,0,1-.56.62c-.46.26-.83.05-.83-.48a1.79,1.79,0,0,1,.25-.81A1.87,1.87,0,0,1,230.37,156.73Z"/><path class="cls-3" d="M236.77,154.61c.46-.26.79-.05.79.47a1.8,1.8,0,0,1-.23.81,1.85,1.85,0,0,1-.56.62c-.46.25-.79,0-.79-.48a1.88,1.88,0,0,1,.22-.8A1.78,1.78,0,0,1,236.77,154.61Z"/><path class="cls-3" d="M243.19,145.64a.52.52,0,0,1,.83.48,1.79,1.79,0,0,1-.25.81,1.87,1.87,0,0,1-.58.61c-.45.26-.79.05-.79-.48a1.89,1.89,0,0,1,.23-.8A1.85,1.85,0,0,1,243.19,145.64Z"/><path class="cls-3" d="M250.16,146.94c.32-.56.33-1.16,0-1.34s-.84.11-1.16.67-.32,1.16,0,1.35S249.84,147.5,250.16,146.94Z"/><path class="cls-3" d="M256.57,146.94c.32-.56.32-1.16,0-1.35s-.84.12-1.16.68-.33,1.16,0,1.34S256.24,147.5,256.57,146.94Z"/><path class="cls-3" d="M262.41,141.94c.45-.26.78,0,.78.48a1.74,1.74,0,0,1-.78,1.42c-.46.27-.83.06-.83-.47a1.82,1.82,0,0,1,.83-1.43Z"/><path class="cls-3" d="M153.54,209.61a.24.24,0,0,1-.14-.05.19.19,0,0,1,0-.27h0l6.46-7.43h.06l6.35-3.67,6.39-2.07,6.37-6.63h.07l6.36-2.37,6.36-7.35a.21.21,0,0,1,.1-.06l6.3-1.82,6.35-20.2a.22.22,0,0,1,.07-.09h.21a.24.24,0,0,1,.09.08l6.34,11h12.61l6.31-10.94v-.06h.07l6.34-2.11,6.36-8.91a.16.16,0,0,1,.08-.06h12.84l6.35-3.67a.19.19,0,0,1,.15,0,.16.16,0,0,1,.12.09.19.19,0,0,1,0,.15.27.27,0,0,1-.09.12L256,147H243.27l-6.34,8.88a.14.14,0,0,1-.1.07l-6.3,2.11-6.37,11-.07.07h-13A.23.23,0,0,1,211,169l-6.18-10.7-6.26,19.92a.16.16,0,0,1-.06.08l-.08,0-6.35,1.83-6.36,7.35-.08.06L179.29,190l-6.37,6.63-.08,0-6.41,2.07-6.3,3.64-6.47,7.35A.18.18,0,0,1,153.54,209.61Z"/><path class="cls-13" d="M153.55,213.55a.36.36,0,0,1-.2-.06.32.32,0,0,1-.14-.14.39.39,0,0,1,0-.3.4.4,0,0,1,.18-.24L262.18,150a.45.45,0,0,1,.28,0,.41.41,0,0,1,.27.46.41.41,0,0,1-.15.24L153.74,213.5A.32.32,0,0,1,153.55,213.55Z"/><path class="cls-3" d="M153.55,204.78c.46-.26.79-.05.79.47a1.8,1.8,0,0,1-.23.81,1.85,1.85,0,0,1-.56.62c-.46.26-.79,0-.79-.48a1.72,1.72,0,0,1,.23-.8A1.75,1.75,0,0,1,153.55,204.78Z"/><path class="cls-3" d="M160,193.69c.46-.26.83-.05.83.47a1.81,1.81,0,0,1-.24.82,1.91,1.91,0,0,1-.59.61c-.45.26-.78,0-.78-.47a1.79,1.79,0,0,1,.22-.81A1.85,1.85,0,0,1,160,193.69Z"/><path class="cls-3" d="M166.94,193.6c.32-.56.33-1.16,0-1.35s-.85.12-1.17.68-.32,1.16,0,1.34S166.62,194.16,166.94,193.6Z"/><path class="cls-3" d="M172.75,178.88c.46-.27.79-.06.79.47a1.88,1.88,0,0,1-.22.8,1.78,1.78,0,0,1-.57.62c-.45.27-.79,0-.79-.48a1.89,1.89,0,0,1,.23-.8A1.72,1.72,0,0,1,172.75,178.88Z"/><path class="cls-3" d="M179.16,182.6c.46-.26.79,0,.79.48a1.85,1.85,0,0,1-.79,1.42c-.45.26-.79.05-.79-.47a1.8,1.8,0,0,1,.23-.81A1.85,1.85,0,0,1,179.16,182.6Z"/><path class="cls-3" d="M185.56,180.75c.45-.26.79-.05.79.48a1.8,1.8,0,0,1-.23.81,1.92,1.92,0,0,1-.56.61c-.46.27-.79.06-.79-.47a1.8,1.8,0,0,1,.23-.81A1.67,1.67,0,0,1,185.56,180.75Z"/><path class="cls-3" d="M192,175.21c.45-.27.82-.05.82.47a1.81,1.81,0,0,1-.24.82,1.7,1.7,0,0,1-.58.61c-.45.26-.79,0-.79-.47a1.92,1.92,0,0,1,.22-.81A1.78,1.78,0,0,1,192,175.21Z"/><path class="cls-3" d="M198.36,167.84c.45-.26.79-.05.79.48a1.85,1.85,0,0,1-.79,1.42c-.46.26-.79,0-.79-.48a1.89,1.89,0,0,1,.23-.8A1.85,1.85,0,0,1,198.36,167.84Z"/><path class="cls-3" d="M204.76,166c.46-.26.79-.05.79.47a1.8,1.8,0,0,1-.23.81,1.75,1.75,0,0,1-.56.62c-.46.26-.79,0-.79-.47A1.87,1.87,0,0,1,204.76,166Z"/><path class="cls-3" d="M211.18,160.43c.46-.27.79-.06.79.47a1.8,1.8,0,0,1-.23.81,1.85,1.85,0,0,1-.56.62c-.45.26-.78,0-.78-.48A1.74,1.74,0,0,1,211.18,160.43Z"/><path class="cls-3" d="M217.57,160.43c.45-.27.78-.06.78.47a1.92,1.92,0,0,1-.22.81,1.85,1.85,0,0,1-.56.62c-.46.26-.79,0-.79-.48a1.6,1.6,0,0,1,.79-1.42Z"/><path class="cls-3" d="M224,145.64c.46-.26.79,0,.79.48a1.88,1.88,0,0,1-.22.8,1.78,1.78,0,0,1-.57.62c-.45.26-.78.05-.78-.48a1.88,1.88,0,0,1,.22-.8A1.85,1.85,0,0,1,224,145.64Z"/><path class="cls-3" d="M230.37,153c.45-.26.79,0,.79.48a1.85,1.85,0,0,1-.79,1.42c-.46.26-.83,0-.83-.47a1.79,1.79,0,0,1,.25-.81A1.81,1.81,0,0,1,230.37,153Z"/><path class="cls-3" d="M236.77,145.64c.46-.26.79,0,.79.48a1.85,1.85,0,0,1-.79,1.42c-.46.26-.79.05-.79-.48A1.85,1.85,0,0,1,236.77,145.64Z"/><path class="cls-3" d="M243.18,141.94c.44-.26.78,0,.78.48a1.74,1.74,0,0,1-.78,1.42c-.46.27-.83.06-.83-.47a1.82,1.82,0,0,1,.83-1.43Z"/><path class="cls-3" d="M249.57,141.94c.46-.26.79,0,.79.48a1.92,1.92,0,0,1-.22.81,2,2,0,0,1-.57.61c-.45.27-.78.06-.78-.47a1.92,1.92,0,0,1,.22-.81A2,2,0,0,1,249.57,141.94Z"/><path class="cls-3" d="M256,138.25c.45-.26.82-.05.82.48a1.77,1.77,0,0,1-.24.81,1.87,1.87,0,0,1-.58.61c-.45.26-.79,0-.79-.48a1.88,1.88,0,0,1,.22-.8A1.78,1.78,0,0,1,256,138.25Z"/><path class="cls-3" d="M262.41,138.25c.45-.26.78-.05.78.48a1.88,1.88,0,0,1-.22.8,2,2,0,0,1-.56.62.52.52,0,0,1-.83-.48,2,2,0,0,1,.24-.81A1.81,1.81,0,0,1,262.41,138.25Z"/><path class="cls-3" d="M153.55,205.93h-.1a.18.18,0,0,1-.09-.12.2.2,0,0,1,0-.15l6.44-11.11.06-.06a.11.11,0,0,1,.08,0l6.25-1.34,6.36-13.32a.13.13,0,0,1,.06-.07h.23l6.3,3.65,6.3-1.82,6.36-5.51,6.39-7.38a.21.21,0,0,1,.1-.06l6.36-1.84,6.37-5.51a.15.15,0,0,1,.13,0h6.3l6.32-14.67.07-.08H224a.13.13,0,0,1,.07.06l6.26,7.21,6.25-7.21a.12.12,0,0,1,0,0l6.43-3.71h6.44l6.31-3.65h6.54a.2.2,0,0,1,.15.06.22.22,0,0,1,0,.28.19.19,0,0,1-.15,0H256l-6.3,3.66H243.3l-6.3,3.58-6.37,7.37a.18.18,0,0,1-.07.05h-.16a.18.18,0,0,1-.07-.05l-6.2-7.15-6.31,14.5a.18.18,0,0,1-.07.08.21.21,0,0,1-.11,0h-6.3L204.93,167h-.08l-6.34,1.82-6.38,7.36-6.41,5.56h-.07l-6.4,1.85h-.15L172.88,180l-6.31,13.21a.18.18,0,0,1,0,.07h-.08l-6.31,1.34-6.4,11a.22.22,0,0,1,0,.08.17.17,0,0,1-.11.2Z"/><g class="cls-21"><path class="cls-16" d="M153.55,204.78c.46-.26.79-.05.79.47a1.8,1.8,0,0,1-.23.81,1.85,1.85,0,0,1-.56.62c-.46.26-.79,0-.79-.48a1.72,1.72,0,0,1,.23-.8A1.75,1.75,0,0,1,153.55,204.78Z"/><path class="cls-16" d="M160,193.69c.46-.26.83-.05.83.47a1.81,1.81,0,0,1-.24.82,1.91,1.91,0,0,1-.59.61c-.45.26-.78,0-.78-.47a1.79,1.79,0,0,1,.22-.81A1.85,1.85,0,0,1,160,193.69Z"/><path class="cls-16" d="M166.94,193.6c.32-.56.33-1.16,0-1.35s-.85.12-1.17.68-.32,1.16,0,1.34S166.62,194.16,166.94,193.6Z"/><path class="cls-16" d="M172.75,178.88c.46-.27.79-.06.79.47a1.92,1.92,0,0,1-.22.81,1.67,1.67,0,0,1-.57.61c-.45.27-.79,0-.79-.48a1.89,1.89,0,0,1,.23-.8A1.72,1.72,0,0,1,172.75,178.88Z"/><path class="cls-16" d="M179.16,182.6c.46-.26.79,0,.79.48a1.85,1.85,0,0,1-.79,1.42c-.45.26-.79.05-.79-.47a1.8,1.8,0,0,1,.23-.81A1.85,1.85,0,0,1,179.16,182.6Z"/><path class="cls-16" d="M185.56,180.75c.45-.26.79-.05.79.48a1.8,1.8,0,0,1-.23.81,1.92,1.92,0,0,1-.56.61c-.46.27-.79.06-.79-.47a1.8,1.8,0,0,1,.23-.81A1.67,1.67,0,0,1,185.56,180.75Z"/><path class="cls-16" d="M192,175.21c.45-.27.82-.05.82.47a1.81,1.81,0,0,1-.24.82,1.7,1.7,0,0,1-.58.61c-.45.26-.79,0-.79-.47a1.92,1.92,0,0,1,.22-.81A1.78,1.78,0,0,1,192,175.21Z"/><path class="cls-16" d="M198.36,167.84c.45-.26.79-.05.79.48a1.85,1.85,0,0,1-.79,1.42c-.46.26-.79,0-.79-.48a1.89,1.89,0,0,1,.23-.8A1.85,1.85,0,0,1,198.36,167.84Z"/><path class="cls-16" d="M204.76,166c.46-.26.79-.05.79.47a1.8,1.8,0,0,1-.23.81,1.75,1.75,0,0,1-.56.62c-.46.26-.79,0-.79-.47A1.87,1.87,0,0,1,204.76,166Z"/><path class="cls-16" d="M211.18,160.43c.46-.27.79-.06.79.47a1.8,1.8,0,0,1-.23.81,1.85,1.85,0,0,1-.56.62c-.45.26-.78,0-.78-.48A1.74,1.74,0,0,1,211.18,160.43Z"/><path class="cls-16" d="M217.57,160.43c.45-.27.78-.06.78.47a1.92,1.92,0,0,1-.22.81,1.85,1.85,0,0,1-.56.62c-.46.26-.79,0-.79-.48a1.6,1.6,0,0,1,.79-1.42Z"/><path class="cls-16" d="M224,145.64c.46-.26.79,0,.79.48a1.88,1.88,0,0,1-.22.8,1.78,1.78,0,0,1-.57.62c-.45.26-.78.05-.78-.48a1.88,1.88,0,0,1,.22-.8A1.85,1.85,0,0,1,224,145.64Z"/><path class="cls-16" d="M230.37,153c.45-.26.79,0,.79.48a1.85,1.85,0,0,1-.79,1.42c-.46.26-.83,0-.83-.47a1.79,1.79,0,0,1,.25-.81A1.81,1.81,0,0,1,230.37,153Z"/><path class="cls-16" d="M236.77,145.64c.46-.26.79,0,.79.48a1.85,1.85,0,0,1-.79,1.42c-.46.26-.79.05-.79-.48A1.85,1.85,0,0,1,236.77,145.64Z"/><path class="cls-16" d="M243.18,141.94c.44-.26.78,0,.78.48a1.74,1.74,0,0,1-.78,1.42c-.46.27-.83.06-.83-.47a1.82,1.82,0,0,1,.83-1.43Z"/><path class="cls-16" d="M249.58,141.94c.45-.26.79,0,.79.48a1.8,1.8,0,0,1-.23.81,1.92,1.92,0,0,1-.56.61c-.46.27-.79.06-.79-.47a1.92,1.92,0,0,1,.22-.81A1.88,1.88,0,0,1,249.58,141.94Z"/><path class="cls-16" d="M256,138.25c.45-.26.82-.05.82.48a1.77,1.77,0,0,1-.24.81,1.87,1.87,0,0,1-.58.61c-.45.26-.79,0-.79-.48a1.88,1.88,0,0,1,.22-.8A1.78,1.78,0,0,1,256,138.25Z"/><path class="cls-16" d="M262.41,138.25c.45-.26.78-.05.78.48a1.88,1.88,0,0,1-.22.8,2,2,0,0,1-.56.62.52.52,0,0,1-.83-.48,2,2,0,0,1,.24-.81A1.81,1.81,0,0,1,262.41,138.25Z"/><path class="cls-16" d="M153.55,205.93h-.1a.18.18,0,0,1-.09-.12.2.2,0,0,1,0-.15l6.44-11.11.06-.06a.11.11,0,0,1,.08,0l6.25-1.34,6.36-13.32a.13.13,0,0,1,.06-.07h.23l6.3,3.65,6.3-1.82,6.36-5.51,6.39-7.38a.21.21,0,0,1,.1-.06l6.36-1.84,6.37-5.51a.15.15,0,0,1,.13,0h6.3l6.32-14.67.07-.08H224a.13.13,0,0,1,.07.06l6.26,7.21,6.25-7.21a.12.12,0,0,1,0,0l6.43-3.71h6.44l6.31-3.65h6.54a.2.2,0,0,1,.15.06.22.22,0,0,1,0,.28.19.19,0,0,1-.15,0H256l-6.3,3.66H243.3l-6.3,3.58-6.37,7.37a.18.18,0,0,1-.07.05h-.16a.18.18,0,0,1-.07-.05l-6.2-7.15-6.31,14.5a.18.18,0,0,1-.07.08.21.21,0,0,1-.11,0h-6.3L204.93,167h-.08l-6.34,1.82-6.38,7.36-6.41,5.56h-.07l-6.4,1.85h-.15L172.88,180l-6.31,13.21a.18.18,0,0,1,0,.07h-.08l-6.31,1.34-6.4,11a.22.22,0,0,1,0,.08.17.17,0,0,1-.11.2Z"/></g><path class="cls-13" d="M156.9,177.35l6.22-3.6c.31-.18.56-.05.56.3a1.11,1.11,0,0,1-.17.53,1.24,1.24,0,0,1-.39.4l-6.21,3.6c-.3.19-.56.06-.56-.29a1.21,1.21,0,0,1,.16-.53A1.38,1.38,0,0,1,156.9,177.35Z"/><path class="cls-3" d="M153.55,178.88c.46-.27.79-.06.79.47a1.8,1.8,0,0,1-.23.81,1.64,1.64,0,0,1-.56.61.51.51,0,0,1-.83-.47,2,2,0,0,1,.24-.81A1.81,1.81,0,0,1,153.55,178.88Z"/><path class="cls-16" d="M153.55,178.88c.46-.27.79-.06.79.47a1.8,1.8,0,0,1-.23.81,1.64,1.64,0,0,1-.56.61.51.51,0,0,1-.83-.47,2,2,0,0,1,.24-.81A1.81,1.81,0,0,1,153.55,178.88Z"/><path class="cls-13" d="M156.9,181l6.2-3.6c.32-.18.57-.05.57.29a1.14,1.14,0,0,1-.17.54,1.27,1.27,0,0,1-.4.4l-6.2,3.6a.35.35,0,0,1-.57-.29,1.28,1.28,0,0,1,.18-.54A1.24,1.24,0,0,1,156.9,181Z"/><path class="cls-3" d="M153.55,182.6c.46-.26.79,0,.79.48a1.85,1.85,0,0,1-.79,1.42c-.46.26-.83.05-.83-.47a1.82,1.82,0,0,1,.83-1.43Z"/><path class="cls-3" d="M153.55,231.85a.15.15,0,0,1-.13,0v-.14a.11.11,0,0,1,0-.08v-.07l3.24-3.34,3.15-.4,3.23-4.16,3.22.44,3.15-2.83,3.2-1.91,3.26-4.52,3.23,1,3.12-2.78a.16.16,0,0,1,.13-.06.18.18,0,0,1,.14.06v.06a.11.11,0,0,1,0,.08v.07a.06.06,0,0,1,0,.06l-3.28,2.94-3.15-1-3.15,4.38-3.2,1.91-3.24,2.93-3.15-.43-3.15,4.11-3.36.39-3.15,3.24A.16.16,0,0,1,153.55,231.85Z"/><path class="cls-9" d="M154.82,221a.27.27,0,0,1,.08-.07l.08-.06a.9.9,0,0,1,.48-.14.51.51,0,0,1,.39.14.94.94,0,0,1,.25.4,2,2,0,0,1,.1.64,3,3,0,0,1-.1.73,3.43,3.43,0,0,1-.25.7,2.33,2.33,0,0,1-.39.59,1.46,1.46,0,0,1-.48.41.86.86,0,0,1-.49.15.51.51,0,0,1-.37-.15,1,1,0,0,1-.26-.4,2.3,2.3,0,0,1-.09-.64,2.67,2.67,0,0,1,0-.4.69.69,0,0,1,.08-.39,1.5,1.5,0,0,1,.11-.36l.12-.34.85-2.43v-.18l.06,0,.27-.15h.06v.2Zm-.61,2.05a1.21,1.21,0,0,0,.06.38.54.54,0,0,0,.16.26.33.33,0,0,0,.23.1.62.62,0,0,0,.32-.09,1.75,1.75,0,0,0,.33-.28,1.83,1.83,0,0,0,.23-.38,1.9,1.9,0,0,0,.21-.88,1.58,1.58,0,0,0-.05-.38.54.54,0,0,0-.16-.26.33.33,0,0,0-.23-.1.63.63,0,0,0-.33.09,1.43,1.43,0,0,0-.32.28,1.9,1.9,0,0,0-.23.39,1.59,1.59,0,0,0-.16.43,2,2,0,0,0-.06.48Z"/><path class="cls-9" d="M157,221.93l.06.2a.4.4,0,0,0,.13.13.41.41,0,0,0,.22,0,1.14,1.14,0,0,0,.36-.15,1,1,0,0,0,.28-.22,1.33,1.33,0,0,0,.23-.3,1.4,1.4,0,0,0,.16-.38,1.62,1.62,0,0,0,0-.44,1.09,1.09,0,0,0,0-.36.35.35,0,0,0-.15-.17.31.31,0,0,0-.23,0,1.48,1.48,0,0,0-.29.12l-.38.23h-.1a.21.21,0,0,1,0-.11v-.4l.05-.13.84-1.89-1.34.79h-.05a.21.21,0,0,1,0-.11v-.26a.43.43,0,0,1,0-.16.31.31,0,0,1,.09-.11l1.84-1.06h.09a.24.24,0,0,1,0,.12v.36a1,1,0,0,1-.07.15l-.82,1.86a.83.83,0,0,1,.43-.13h.18a.38.38,0,0,1,.15.09.58.58,0,0,1,.21.34,1.52,1.52,0,0,1,.08.56,2.82,2.82,0,0,1-.09.71,2.93,2.93,0,0,1-.25.64,3.25,3.25,0,0,1-.37.52,2,2,0,0,1-.45.36,1.37,1.37,0,0,1-.55.21.54.54,0,0,1-.37-.08.6.6,0,0,1-.22-.28,1.26,1.26,0,0,1-.08-.43.24.24,0,0,1,0-.12.16.16,0,0,1,.07-.09l.22-.13H157A.17.17,0,0,1,157,221.93Z"/><path class="cls-9" d="M159.78,220.32a.66.66,0,0,0,.06.2.27.27,0,0,0,.13.13.41.41,0,0,0,.22,0,1.14,1.14,0,0,0,.36-.15,1.46,1.46,0,0,0,.28-.21,1.39,1.39,0,0,0,.23-.31,2.39,2.39,0,0,0,.15-.37,1.61,1.61,0,0,0,.06-.44.78.78,0,0,0-.06-.37.39.39,0,0,0-.14-.17.45.45,0,0,0-.23,0,1.48,1.48,0,0,0-.29.12l-.39.23h-.09a.21.21,0,0,1,0-.11v-.26a.33.33,0,0,1,0-.14l.05-.12.84-1.89-1.34.78h-.05a.21.21,0,0,1,0-.11v-.26a.38.38,0,0,1,0-.15.09.09,0,0,1,0-.07l.06-.05,1.84-1.07h.09a.24.24,0,0,1,0,.12v.4a.26.26,0,0,1-.07.15l-.82,1.86a1.23,1.23,0,0,1,.42-.14.6.6,0,0,1,.34.11.72.72,0,0,1,.21.33,1.83,1.83,0,0,1,.08.57,3,3,0,0,1-.09.72,2.89,2.89,0,0,1-.26.63,2.14,2.14,0,0,1-.37.52,2.22,2.22,0,0,1-.44.37,1.59,1.59,0,0,1-.55.2.56.56,0,0,1-.38-.08.76.76,0,0,1-.22-.28,1.2,1.2,0,0,1-.07-.42.29.29,0,0,1,0-.13.23.23,0,0,1,.07-.1l.21-.11h0A.24.24,0,0,1,159.78,220.32Z"/><path class="cls-13" d="M154.13,234.4l27.66-16a.35.35,0,0,1,.57.29,1.14,1.14,0,0,1-.17.54,1.21,1.21,0,0,1-.4.41l-27.66,16c-.31.18-.57.06-.57-.29a1.24,1.24,0,0,1,.18-.53A1.13,1.13,0,0,1,154.13,234.4Z"/><path class="cls-13" d="M154.13,215.91l6.2-3.59c.31-.18.57-.06.57.28a1.28,1.28,0,0,1-.18.54,1.1,1.1,0,0,1-.39.41l-6.2,3.59c-.31.18-.57.06-.57-.28a1.14,1.14,0,0,1,.17-.54A1.12,1.12,0,0,1,154.13,215.91Z"/><path class="cls-3" d="M153.55,254h-.14v-.28l3.25-3.34,3.22-.4,3.23-2.83,3.15-.85,3.25-6.47,3.26,1.58,3.15-2.78H176l3.11-.59,3.15-5.44v-.07h.29a.11.11,0,0,1,0,.08.11.11,0,0,1,0,.08.09.09,0,0,1,0,.07l-3.24,5.61-3.24.61-3.26,2.87-3.15-1.58-3.15,6.31-3.24.88-3.22,2.83-3.19.41-3.15,3.24a.27.27,0,0,1-.08.07Z"/><g class="cls-21"><path class="cls-16" d="M153.55,254h-.14v-.28l3.25-3.34,3.22-.4,3.23-2.83,3.15-.85,3.25-6.47,3.26,1.58,3.15-2.78H176l3.11-.59,3.15-5.44v-.07h.29a.11.11,0,0,1,0,.08.11.11,0,0,1,0,.08.09.09,0,0,1,0,.07l-3.24,5.61-3.24.61-3.26,2.87-3.15-1.58-3.15,6.31-3.24.88-3.22,2.83-3.19.41-3.15,3.24a.27.27,0,0,1-.08.07Z"/></g><path class="cls-9" d="M155.18,246.15a.49.49,0,0,1,0,.17.22.22,0,0,1-.09.1l-.19.11h-.05a.24.24,0,0,1,0-.12v-3.93L154,243.8a.08.08,0,0,1-.09.09h0l-.11-.15a.09.09,0,0,1,0-.07v-.06a.3.3,0,0,1,0-.16l1-1.76a.39.39,0,0,1,.08-.1H155l.19-.12h.09a.09.09,0,0,1,0,.12Z"/><path class="cls-9" d="M157.23,242.51a2.28,2.28,0,0,0,.21-.51,1.82,1.82,0,0,0,.07-.57.77.77,0,0,0-.15-.55q-.13-.16-.45,0a.7.7,0,0,0-.28.23,2,2,0,0,0-.2.31,1.65,1.65,0,0,1-.11.36,2.33,2.33,0,0,0-.08.38.38.38,0,0,1,0,.15l-.08.09-.22.11h-.07a.14.14,0,0,1,0-.09,3.81,3.81,0,0,1,.08-.59,2.87,2.87,0,0,1,.22-.62,3.3,3.3,0,0,1,.34-.57,1.85,1.85,0,0,1,.47-.41.86.86,0,0,1,.46-.14.43.43,0,0,1,.32.14.82.82,0,0,1,.2.38,2.1,2.1,0,0,1,.07.56v.43a2.57,2.57,0,0,1-.08.4,2,2,0,0,1-.14.41,3.49,3.49,0,0,1-.2.44l-1,2.11,1.43-.83h.05v.37a.22.22,0,0,1,0,.16v.06c0,.06,0,0-.06.05l-2,1.16H156a.21.21,0,0,1,0-.11v-.26a.38.38,0,0,1,0-.15,1.42,1.42,0,0,1,.08-.18Z"/><path class="cls-9" d="M160.93,239.91v1.21a4.57,4.57,0,0,1-.07.83,3.56,3.56,0,0,1-.22.79,2.22,2.22,0,0,1-.37.63,1.54,1.54,0,0,1-.53.45.92.92,0,0,1-.53.16.48.48,0,0,1-.2-.07.51.51,0,0,1-.16-.13,1.06,1.06,0,0,1-.22-.51,3.65,3.65,0,0,1-.08-.74v-1.24a4.78,4.78,0,0,1,.08-.84,3.09,3.09,0,0,1,.22-.79,2.63,2.63,0,0,1,.36-.63,2.12,2.12,0,0,1,.53-.46.84.84,0,0,1,.53-.15.39.39,0,0,1,.21.06.57.57,0,0,1,.16.15,1.18,1.18,0,0,1,.22.5A3,3,0,0,1,160.93,239.91ZM159,242.27a1.53,1.53,0,0,0,.19.89c.13.15.32.15.56,0a1.37,1.37,0,0,0,.56-.65,2.88,2.88,0,0,0,.2-1.12v-1.22a1.47,1.47,0,0,0-.2-.89c-.13-.15-.31-.15-.56,0a1.34,1.34,0,0,0-.56.64,3.09,3.09,0,0,0-.19,1.13Z"/><path class="cls-13" d="M154.13,256.55l27.66-16c.31-.18.57-.05.57.29a1.2,1.2,0,0,1-.57.94l-27.66,16a.35.35,0,0,1-.57-.3,1.2,1.2,0,0,1,.57-.94Z"/><path class="cls-13" d="M154.13,238.06l6.2-3.6c.31-.18.57-.05.57.29a1.28,1.28,0,0,1-.18.54,1.1,1.1,0,0,1-.39.41l-6.2,3.59c-.31.18-.57.06-.57-.28a1.14,1.14,0,0,1,.17-.54A1.12,1.12,0,0,1,154.13,238.06Z"/><path class="cls-3" d="M192,209.61h-.09a.06.06,0,0,1-.06-.06l0-.06v-.15a.18.18,0,0,1,0-.07l3.2-2.55,3.22-3.68,3.27-.48,3.15-.7,3.24-3.82,3.15.56,3.15-5,3.25,0,3.15-2.8h.29a.21.21,0,0,1,0,.28l-3.3,2.92-3.15-.06L211.26,199l-3.22-.57-3.15,3.75-3.27.74-3.16.46L195.31,207l-3.23,2.64Z"/><path class="cls-9" d="M193.23,198.82l.07-.07.09-.06a.83.83,0,0,1,.46-.11.49.49,0,0,1,.38.14,1,1,0,0,1,.26.4,2,2,0,0,1,.08.64,3.55,3.55,0,0,1-.08.73,3.46,3.46,0,0,1-.26.7,2.83,2.83,0,0,1-.38.59,1.76,1.76,0,0,1-.49.41.83.83,0,0,1-.48.15.58.58,0,0,1-.39-.15,1,1,0,0,1-.22-.46,2.3,2.3,0,0,1-.09-.64,2.67,2.67,0,0,1,0-.4,1.8,1.8,0,0,1,.08-.39l.11-.37.12-.34.85-2.43v-.11a.18.18,0,0,1,.1-.11l.26-.15h.07a.08.08,0,0,1,0,.09.09.09,0,0,1,0,.07h0Zm-.6,2.05a1,1,0,0,0,.05.38.61.61,0,0,0,.15.26.39.39,0,0,0,.25.1.5.5,0,0,0,.31-.1,1.18,1.18,0,0,0,.32-.27,2,2,0,0,0,.25-.39,3.12,3.12,0,0,0,.15-.43,3.23,3.23,0,0,0,0-.44,1.21,1.21,0,0,0,0-.38.61.61,0,0,0-.15-.26.39.39,0,0,0-.25-.1.62.62,0,0,0-.32.09,1.78,1.78,0,0,0-.56.66,1.76,1.76,0,0,0-.15.44,2.12,2.12,0,0,0-.05.44Z"/><path class="cls-9" d="M196.47,197.66a2.36,2.36,0,0,0,.21-.52,2.22,2.22,0,0,0,.07-.57.77.77,0,0,0-.15-.55c-.09-.12-.25-.11-.45,0a1.28,1.28,0,0,0-.29.23,3.37,3.37,0,0,0-.19.32,1.42,1.42,0,0,0-.11.35,2.33,2.33,0,0,1-.08.38.38.38,0,0,1,0,.15l-.07.09-.21.12h0a.14.14,0,0,1,0-.09,2.33,2.33,0,0,1,.08-.59,3.1,3.1,0,0,1,.56-1.19,1.81,1.81,0,0,1,.46-.41.8.8,0,0,1,.45-.14.54.54,0,0,1,.18,0,.4.4,0,0,1,.15.1.82.82,0,0,1,.2.38,2.1,2.1,0,0,1,.07.56,3.09,3.09,0,0,1,0,.43,2.57,2.57,0,0,1-.08.4,1.23,1.23,0,0,1-.13.41l-.21.44-1.05,2.1,1.44-.82h0a.13.13,0,0,1,0,.12v.26a.38.38,0,0,1,0,.15.44.44,0,0,1-.08.11l-2,1.16h-.1a.24.24,0,0,1,0-.12v-.41l.08-.18Z"/><path class="cls-9" d="M199.65,193.43h0a.06.06,0,0,1,0,.06v.67l-1,4.73a.47.47,0,0,1-.06.15.16.16,0,0,1-.08.1l-.21.13h-.08a.09.09,0,0,1,0-.1.09.09,0,0,1,0-.07l1-4.72-1.58.89h-.09a.24.24,0,0,1,0-.12v-.26a.43.43,0,0,1,0-.16.31.31,0,0,1,.09-.11Z"/><path class="cls-13" d="M192.54,212.18l27.66-16a.35.35,0,0,1,.57.29,1.48,1.48,0,0,1-.17.54,1.21,1.21,0,0,1-.4.41l-27.66,16a.35.35,0,0,1-.57-.29,1.27,1.27,0,0,1,.17-.54A1.21,1.21,0,0,1,192.54,212.18Z"/><path class="cls-13" d="M192.54,193.68l6.19-3.59c.32-.18.58-.06.58.28a1.28,1.28,0,0,1-.18.54,1.12,1.12,0,0,1-.4.41l-6.19,3.59c-.31.18-.57.06-.57-.28a1.27,1.27,0,0,1,.17-.54A1.42,1.42,0,0,1,192.54,193.68Z"/><path class="cls-3" d="M192,231.78h-.11a.2.2,0,0,1-.08-.12.19.19,0,0,1,0-.15l3.27-5.36,3.3.61,3.09-.86,3.2-3.9,3.15-.79,3.24-5.76,3.3,1,3.11-.59L220.6,213h.3a.09.09,0,0,1,0,.07v.16a.17.17,0,0,1-.06.06l-3.24,2.89h0l-3.26.61-3-.89-3.15,5.64-3.22.79-3.2,3.9h-.06l-3.24.89h0l-3.07-.56-3.15,5.13-.07.06Z"/><g class="cls-21"><path class="cls-16" d="M192,231.78h-.11a.2.2,0,0,1-.08-.12.19.19,0,0,1,0-.15l3.27-5.36,3.3.61,3.09-.86,3.2-3.9,3.15-.79,3.24-5.76,3.3,1,3.11-.59L220.6,213h.3a.09.09,0,0,1,0,.07v.16a.17.17,0,0,1-.06.06l-3.24,2.89h0l-3.26.61-3-.89-3.15,5.64-3.22.79-3.2,3.9h-.06l-3.24.89h0l-3.07-.56-3.15,5.13-.07.06Z"/></g><path class="cls-9" d="M193.44,222.49h-.13a1,1,0,0,1-.43.14.53.53,0,0,1-.38-.12.79.79,0,0,1-.23-.34,1.91,1.91,0,0,1-.1-.67,3.06,3.06,0,0,1,.09-.74,3.29,3.29,0,0,1,.26-.68,3.47,3.47,0,0,1,.37-.57,1.67,1.67,0,0,1,.45-.39,1,1,0,0,1,.49-.16.56.56,0,0,1,.37.15.83.83,0,0,1,.24.4,2.27,2.27,0,0,1,.08.63,2.54,2.54,0,0,1,0,.39,1.89,1.89,0,0,1-.1.41,1.42,1.42,0,0,1-.12.4c0,.13-.08.25-.12.35l-.85,2.43-.06.12v.06l-.06,0-.27.16h-.06a.21.21,0,0,1,0-.11v-.1Zm.6-2a1.21,1.21,0,0,0,0-.38.64.64,0,0,0-.14-.22.24.24,0,0,0-.11-.06h-.12a.75.75,0,0,0-.3.09,1.81,1.81,0,0,0-.3.25,1.69,1.69,0,0,0-.23.36,1.87,1.87,0,0,0-.19.87,1.28,1.28,0,0,0,0,.39.61.61,0,0,0,.15.24.32.32,0,0,0,.23.09.53.53,0,0,0,.3-.09,1.42,1.42,0,0,0,.3-.25,2.64,2.64,0,0,0,.23-.35A3.52,3.52,0,0,0,194,221a1.5,1.5,0,0,0,0-.56Z"/><path class="cls-9" d="M195.26,222a.68.68,0,0,0,.07.2.4.4,0,0,0,.13.13.41.41,0,0,0,.22,0,1.14,1.14,0,0,0,.36-.15,1.86,1.86,0,0,0,.28-.21,1.66,1.66,0,0,0,.22-.3,1.8,1.8,0,0,0,.16-.38,1.61,1.61,0,0,0,.06-.44,1.15,1.15,0,0,0-.06-.37.35.35,0,0,0-.15-.17.45.45,0,0,0-.23,0,1,1,0,0,0-.28.13l-.39.22h-.05v-.37a.33.33,0,0,1,0-.14l.05-.12.85-1.89-1.36.79H195a.24.24,0,0,1,0-.12v-.26a.43.43,0,0,1,0-.16.31.31,0,0,1,.09-.11l1.85-1.07H197a.21.21,0,0,1,0,.11v.27a.33.33,0,0,1,0,.14l-.06.15-.83,1.86a.91.91,0,0,1,.42-.14.52.52,0,0,1,.34.1.77.77,0,0,1,.22.34,1.76,1.76,0,0,1,.07.56,2.19,2.19,0,0,1-.09.72,3.54,3.54,0,0,1-.25.64,2.73,2.73,0,0,1-.37.52,2,2,0,0,1-.45.36,1.33,1.33,0,0,1-.54.21.56.56,0,0,1-.38-.08.7.7,0,0,1-.22-.29,1,1,0,0,1-.07-.41.33.33,0,0,1,0-.14.31.31,0,0,1,.07-.09l.22-.12h.08Z"/><path class="cls-13" d="M192.54,234.33l27.66-16.05c.31-.18.57-.06.57.29a1.38,1.38,0,0,1-.17.53,1.42,1.42,0,0,1-.4.41l-27.66,16c-.31.18-.57.05-.57-.29a1.24,1.24,0,0,1,.18-.53A1.12,1.12,0,0,1,192.54,234.33Z"/><path class="cls-13" d="M192.54,215.84l6.19-3.6c.32-.18.58-.05.58.29a1.28,1.28,0,0,1-.18.54,1.12,1.12,0,0,1-.4.41l-6.19,3.59c-.31.18-.57.06-.57-.28a1.36,1.36,0,0,1,.17-.55A1.27,1.27,0,0,1,192.54,215.84Z"/><path class="cls-3" d="M233.57,173.66a3.52,3.52,0,0,1,1.77-.64,3.68,3.68,0,0,1,1.85.34l-3.65,9.83Z"/><path class="cls-3" d="M229.92,177.6a10.87,10.87,0,0,1,3.65-3.94v9.57Z"/><path class="cls-3" d="M227.66,183.68a19.16,19.16,0,0,1,2.26-6.08l3.65,5.63Z"/><path class="cls-16" d="M229.92,177.6a19.16,19.16,0,0,0-2.26,6.08l5.91-.45v-9.57A10.87,10.87,0,0,0,229.92,177.6Z"/><path class="cls-3" d="M237.19,173.36a5.12,5.12,0,0,1,2.26,3.47l-5.91,6.36Z"/><path class="cls-3" d="M227.66,189.59a12.34,12.34,0,0,1-.31-2.78,16.65,16.65,0,0,1,.31-3.15l5.91-.46Z"/><path class="cls-3" d="M239.48,182.77a19.16,19.16,0,0,1-2.26,6.08l-3.65-5.62Z"/><path class="cls-3" d="M233.57,192.79a3.52,3.52,0,0,1-1.79.63,3.63,3.63,0,0,1-1.86-.36l3.65-9.83Z"/><path class="cls-3" d="M227.66,189.59l5.91-6.36-3.65,9.83a5.19,5.19,0,0,1-1.5-1.49A5,5,0,0,1,227.66,189.59Z"/><path class="cls-3" d="M239.48,176.86a11.78,11.78,0,0,1,.3,2.78,16.64,16.64,0,0,1-.3,3.15l-5.91.46Z"/><path class="cls-3" d="M237.19,188.85a10.87,10.87,0,0,1-3.65,3.94v-9.56Z"/><path class="cls-9" d="M230.47,197.67l6.2-3.59c.31-.18.57-.06.57.28a1.31,1.31,0,0,1-.57.95l-6.2,3.59c-.31.18-.56,0-.56-.28a1.22,1.22,0,0,1,.17-.55A1.24,1.24,0,0,1,230.47,197.67Z"/><path class="cls-13" d="M229.1,202.17,238,197c.31-.18.57-.05.57.29a1.28,1.28,0,0,1-.18.54,1.24,1.24,0,0,1-.39.4l-8.94,5.18c-.31.19-.56.06-.56-.28a1.1,1.1,0,0,1,.16-.55A1.24,1.24,0,0,1,229.1,202.17Z"/><path class="cls-13" d="M229.1,205.87l8.94-5.18c.31-.18.57-.05.57.29a1.28,1.28,0,0,1-.18.54,1.24,1.24,0,0,1-.39.4l-8.94,5.18c-.31.18-.56.06-.56-.28a1.3,1.3,0,0,1,.16-.54A1.21,1.21,0,0,1,229.1,205.87Z"/><path class="cls-13" d="M229.1,209.61l8.94-5.19a.35.35,0,0,1,.57.29,1.37,1.37,0,0,1-.18.55,1.24,1.24,0,0,1-.39.4l-8.94,5.18a.34.34,0,0,1-.56-.29,1.14,1.14,0,0,1,.17-.54A1.24,1.24,0,0,1,229.1,209.61Z"/><path class="cls-3" d="M256,160.67a3.62,3.62,0,0,1,3.65-.27L256,170.21Z"/><path class="cls-3" d="M252.32,164.61a11,11,0,0,1,3.65-3.94v9.54Z"/><path class="cls-3" d="M250.07,170.7a19.28,19.28,0,0,1,2.25-6.09l3.65,5.63Z"/><path class="cls-3" d="M259.62,160.4a5.12,5.12,0,0,1,2.26,3.47L256,170.24Z"/><path class="cls-3" d="M250.07,176.61a11.87,11.87,0,0,1-.3-2.79,16.64,16.64,0,0,1,.3-3.15l5.91-.45Z"/><path class="cls-3" d="M261.88,169.78a19.06,19.06,0,0,1-2.26,6.09L256,170.21Z"/><path class="cls-3" d="M256,179.81a3.62,3.62,0,0,1-3.65.27l3.65-9.87Z"/><path class="cls-3" d="M250.07,176.61l5.9-6.37-3.65,9.84a5.19,5.19,0,0,1-1.49-1.5A5.06,5.06,0,0,1,250.07,176.61Z"/><path class="cls-16" d="M252.33,164.61a19.3,19.3,0,0,0-2.26,6.09,16.64,16.64,0,0,0-.3,3.15,11.78,11.78,0,0,0,.3,2.78,5.35,5.35,0,0,0,.76,2,5.11,5.11,0,0,0,1.5,1.5l3.65-9.89V160.7A11,11,0,0,0,252.33,164.61Z"/><path class="cls-3" d="M261.88,163.9a11.88,11.88,0,0,1,.31,2.79,16.65,16.65,0,0,1-.31,3.15l-5.91.45Z"/><path class="cls-3" d="M259.62,175.87a10.7,10.7,0,0,1-3.65,3.94v-9.6Z"/><path class="cls-9" d="M252.88,184.73l6.2-3.59c.31-.18.56-.06.56.28a1.3,1.3,0,0,1-.16.54,1.21,1.21,0,0,1-.4.41l-6.2,3.6c-.32.18-.57,0-.57-.29a1.14,1.14,0,0,1,.17-.54A1.12,1.12,0,0,1,252.88,184.73Z"/><path class="cls-13" d="M251.51,189.23l8.93-5.19c.32-.18.57,0,.57.3a1.31,1.31,0,0,1-.17.54,1.27,1.27,0,0,1-.4.4l-8.93,5.18c-.31.18-.57,0-.57-.28a1.22,1.22,0,0,1,.17-.55A1.27,1.27,0,0,1,251.51,189.23Z"/><path class="cls-13" d="M251.51,192.93l8.93-5.17c.32-.19.57-.06.57.28a1.27,1.27,0,0,1-.17.54,1.42,1.42,0,0,1-.4.41l-8.93,5.17c-.31.19-.57.06-.57-.28a1.14,1.14,0,0,1,.17-.54A1.42,1.42,0,0,1,251.51,192.93Z"/><path class="cls-13" d="M251.51,196.64l8.93-5.16c.32-.18.57,0,.57.29a1.31,1.31,0,0,1-.17.54,1.27,1.27,0,0,1-.4.4l-8.93,5.19a.35.35,0,0,1-.57-.29,1.22,1.22,0,0,1,.17-.56A1.21,1.21,0,0,1,251.51,196.64Z"/><path class="cls-3" d="M255.85,288.94a10.51,10.51,0,0,0-4.48-8.41,3.39,3.39,0,0,0-3.33-.46c-5.27,2.65-42.31,26.41-44.68,27.58a1.68,1.68,0,0,0-.61.66,1.65,1.65,0,0,0-.18.87,5.41,5.41,0,0,0,.62,2.39,5.33,5.33,0,0,0,1.63,1.84,1.64,1.64,0,0,0,1.7.22c3.75-2.06,40.32-17.65,47.79-21.65A3.25,3.25,0,0,0,255.85,288.94Z"/><path class="cls-22" d="M254.4,283.82a9.38,9.38,0,0,0-3-3.29,3.37,3.37,0,0,0-3.31-.47l-.11.06c-4.81,2.46-32.38,20.05-41.66,25.77h-.06l-.38.24-.11.07-.21.13-.26.15c-1,.6-1.64,1-1.89,1.11a1.84,1.84,0,0,0-.22.17,2.16,2.16,0,0,0-.41.62,1.89,1.89,0,0,0-.12.74,2.26,2.26,0,0,0,0,.52v.22a.59.59,0,0,0,.06.32l.07.26a.76.76,0,0,0,.1.3,2.09,2.09,0,0,0,.08.23Z"/><path class="cls-3" d="M204.83,313.43a5.33,5.33,0,0,1-1.63-1.84,5.19,5.19,0,0,1-.61-2.38c0-1.52,1.13-2.1,2.43-1.3a5.32,5.32,0,0,1,2.22,4.22C207.24,313.62,206.12,314.23,204.83,313.43Z"/><path class="cls-7" d="M193.76,314.45a4.07,4.07,0,0,0,1.73,3.24,1.28,1.28,0,0,0,1.29.17l9-4.76a1.44,1.44,0,0,0,.44-.51,1.26,1.26,0,0,0,.12-.66,4,4,0,0,0-.47-1.82,4.16,4.16,0,0,0-1.25-1.42,1.27,1.27,0,0,0-1.3-.16l-8.95,4.76a1.3,1.3,0,0,0-.45.51A1.33,1.33,0,0,0,193.76,314.45Z"/><path class="cls-8" d="M194.34,313.28a1.3,1.3,0,0,0-.45.51,1.24,1.24,0,0,0-.13.66,3.65,3.65,0,0,0,.27,1.38l11.56-6.15a3.4,3.4,0,0,0-1-1,1.3,1.3,0,0,0-.63-.26,1.28,1.28,0,0,0-.67.1l-9,4.76Z"/><path class="cls-3" d="M205.26,322.4c0-5.74-3.8-11.48-11.39-15.86-15.17-8.76-39.78-8.76-55,0-7.59,4.38-11.39,10.12-11.39,15.86V333c0,5.74,3.8,11.49,11.39,15.87,15.18,8.76,39.79,8.76,55,0,7.59-4.38,11.39-10.13,11.39-15.87Zm-64.47-12.61c6.78-3.94,15.87-6.06,25.61-6.06s18.82,2.15,25.6,6.06c6.13,3.54,9.5,8,9.5,12.61s-3.37,9.08-9.5,12.61c-6.78,3.94-15.87,6.07-25.6,6.07s-18.83-2.16-25.61-6.07c-6.13-3.54-9.51-8-9.51-12.61S134.66,313.33,140.79,309.79Z"/><path class="cls-23" d="M138.91,338.27c15.18,8.77,39.78,8.77,55,0s15.18-23,0-31.73-39.78-8.76-55,0S123.71,329.51,138.91,338.27Zm-7.63-15.87c0-4.59,3.37-9.07,9.5-12.61,6.78-3.94,15.87-6.06,25.61-6.06s18.82,2.15,25.61,6.06c6.12,3.54,9.5,8,9.5,12.61s-3.38,9.08-9.5,12.61c-6.79,3.94-15.88,6.07-25.61,6.07s-18.83-2.16-25.61-6.07C134.66,331.48,131.28,327,131.28,322.4Z"/><path class="cls-3" d="M131.28,322.4a10.64,10.64,0,0,0,1.51,5.3,21.51,21.51,0,0,1,8-7.33c6.77-3.94,15.86-6.07,25.61-6.07s18.82,2.15,25.59,6.07a21.35,21.35,0,0,1,8,7.33,10.53,10.53,0,0,0,1.51-5.3c0-4.59-3.37-9.07-9.51-12.61-6.77-3.94-15.87-6.06-25.59-6.06s-18.84,2.16-25.61,6.06C134.65,313.33,131.28,317.81,131.28,322.4Z"/><path class="cls-22" d="M131.28,322.4a10.64,10.64,0,0,0,1.51,5.3,21.51,21.51,0,0,1,8-7.33c6.77-3.94,15.86-6.07,25.61-6.07s18.82,2.15,25.59,6.07a21.35,21.35,0,0,1,8,7.33,10.53,10.53,0,0,0,1.51-5.3c0-4.59-3.37-9.07-9.51-12.61-6.77-3.94-15.87-6.06-25.59-6.06s-18.84,2.16-25.61,6.06C134.65,313.33,131.28,317.81,131.28,322.4Z"/><path class="cls-24" d="M140.78,314.58c6.78-3.94,15.87-6.07,25.6-6.07s18.83,2.16,25.61,6.07c5,2.92,8.23,6.48,9.19,10.24-1,3.74-4.14,7.3-9.19,10.25-6.78,3.94-15.87,6.06-25.61,6.06s-18.82-2.16-25.6-6.06c-5.06-2.93-8.23-6.49-9.19-10.25C132.55,321.06,135.72,317.5,140.78,314.58Z"/><path class="cls-22" d="M157.23,344.22v10.57a50.71,50.71,0,0,1-18.32-5.94c-7.59-4.38-11.39-10.13-11.39-15.87V322.4a13.14,13.14,0,0,1,.47-3.47c-1.85,6.84,1.79,14.07,10.91,19.34A51,51,0,0,0,157.23,344.22Z"/><path class="cls-8" d="M342.47,279.63c.47.19.56,1.07.59,2.83,0,1.33.26,3.66-1.3,4.09s-3.85.14-4.82-1.14a59.85,59.85,0,0,0-3.76-4.94c-1.5-1.68-3.15-3.27-3.71-5.6-.51-2.11,0-3,1.43-3.59,2-.79,5,2,6.55,2.48C338.76,274.16,342,279.44,342.47,279.63Z"/><path class="cls-25" d="M342.51,278l-.05,2.15a5.28,5.28,0,0,1-5.45,0c-.09-.21-.49-3.1-.49-3.1Z"/><path class="cls-8" d="M324.73,291.67s.57,1.89.87,3.54c.24,1.31.57,3.5.09,4.47s-2.28,1.57-5,1.48c-1.79-.06-4.6,1.09-6.54,2.12s-6.1,1.4-8.19,1.11c-2.45-.35-5-1.83-5.33-2.85s.17-2.08,6-4.42c.06,0,8.12-2.44,11-5.47Z"/><path class="cls-25" d="M324.78,289.34s0,1.57-.06,2.51-1.12,2.26-3.94,2.09c-2-.11-3.33-.67-3.21-2.29l.06-2.36Z"/><path class="cls-7" d="M344.56,249.41a58.73,58.73,0,0,0-2.29-11.29s1-9.68,1.58-18.87c.62-9.91,1.2-15-.75-29.34,0,0-30.41-2.74-31.24,8.73s.35,40.71.62,45.77,1,9.52,1.89,17.72,3.3,27.19,3.3,27.19a7.57,7.57,0,0,0,7.13,0s2.77-22.9,2.66-28.71a49.56,49.56,0,0,0-1.92-12.75s.79-9.46,1.58-17.67,1.38-12.16,1.57-15.76l.7-.32s.38,14.18.65,19.26.95,9.9,2.2,19.29c1.09,8.17,4.43,25.5,4.43,25.5,3.61,2.06,5.84-.12,5.84-.12S345.39,256.48,344.56,249.41Z"/><path class="cls-8" d="M328.65,214.47s7.88-3.66,11.82-7c0,0-3.72,5-8.51,7.15,0,0-2.09,17.61-2.07,17.25l-.58-17.39Z"/><path class="cls-25" d="M323.21,149.05l1.18,10.5,9.91-.5-1.09-12.25Z"/><path class="cls-7" d="M338.05,153.07c3.69-.17,5.56.39,7.23,3.57s2.3,12.69,2.88,17.6.72,8.36-1.3,8.87-9.88.72-9.88.72Z"/><path class="cls-9" d="M344.27,158.51c-.53-2.94-4.4-6-8-5.44l-2.46.42c-.43,1.76-5.27,2.86-9.89,1.78-1.4.37-6,1.23-7.15,1.61-3.32,1.11-4.73,4.38-5.21,15.21,0,0,.27,24.55.13,29.43a39.93,39.93,0,0,0,21.6,2.63c10-1.94,11.25-6,11.25-6l-1.48-11.23S345.48,165.16,344.27,158.51Z"/><path class="cls-7" d="M323.59,152.51l.08.66a14.54,14.54,0,0,0,6.09,0c3.22-.72,3.87-1.62,3.87-1.62l-.07-.79s.79-.29,1.22.94a13.09,13.09,0,0,1,.48,1.5s.37,2.26-3.42,3.42a11.78,11.78,0,0,1-9.46-1l-1.48.32s1.28-3,1.67-3.56a.94.94,0,0,1,.39-.4.92.92,0,0,1,.54-.12Z"/><path class="cls-9" d="M293.33,141.25l-19.67,10.27,9.77,26.7L301.78,168Z"/><path class="cls-26" d="M292.43,143.87l-16.5,8.61,8.65,23L300,166.82Z"/><path class="cls-10" d="M289,146.35s-.15-.37-.33-.79-1.57-.18-3.06.6l-2.9,1.5c-1.52.79-2.61,1.78-2.43,2.23l.32.79Z"/><path class="cls-3" d="M288.62,143.08c-.1-.29-.7-.24-1.33.1l-1.13.61s-.71-1.76-3.32-.54-2,3.27-2,3.27l-1.21.66c-.66.37-1.14.9-1.06,1.19l.15.51,10.13-5.28Z"/><path class="cls-3" d="M287.54,144.26c-1,.46-1.32.69-1.05,1.39s.6,1.36.6,1.36l-4.48,2.36s-.37-1-.53-1.39-.5-.58-1.21-.21l-.27-.28,7.09-3.6Z"/><path class="cls-16" d="M287.54,144.26c-1,.46-1.32.69-1.05,1.39s.6,1.36.6,1.36l-4.48,2.36s-.37-1-.53-1.39-.5-.58-1.21-.21l-.27-.28,7.09-3.6Z"/><path class="cls-3" d="M289.13,146.39l-.31-.79c-.18-.46-1.58-.19-3.07.6l-2.91,1.5c-1.51.78-2.6,1.78-2.42,2.23l.32.79Z"/><path class="cls-25" d="M316.78,156.88c-4.54.4-6.47,1.22-9.88,7.36-3.7,6.68-10.81,18.74-11.71,20.27a8.08,8.08,0,0,0-.41,7.29c1,1.82,4.22,2.65,7.88-1.46C307,185.46,315,173.52,315,173.52S321.83,164.51,316.78,156.88Z"/><path class="cls-25" d="M296.65,193.19c-3.48-.41-11.61-11.44-13.92-15a25.57,25.57,0,0,0-7-7.43c-3.68-2.72-3.15-6.9-1.54-10.73.55-1.33,2.45-.47,2.45-.47l.66,1.82,1.15,3.15c.79.73,1.23,1,1.28.75.1-.41-.57-2.1-.56-3.86,0-2.12,1.51-.73,1.95,0a26.79,26.79,0,0,1,1.58,3.5c.74,1.9.44,3.82,1.34,5.11S297,183,297,183Z"/><path class="cls-7" d="M317.63,156.64c-2.75-.06-6.05.38-8.61,3.7s-12.8,21.4-12.8,21.4l-5.75-5.15a10,10,0,0,0-4.43,6.23,64.5,64.5,0,0,0,5.2,7.09c2.44,2.66,5.15,4.51,7.37,3.69s4.49-2.57,9.28-9.24,10-14.52,10-14.52S321.2,162.16,317.63,156.64Z"/><path class="cls-27" d="M316.22,136.2s-2.48,3.75-2.19,4.12,2.1.7,2.1.7Z"/><path class="cls-8" d="M317.38,138.61a2.92,2.92,0,0,1-2.73-1.83,2.87,2.87,0,0,1-.17-1.71,3,3,0,0,1,.81-1.51,2.93,2.93,0,0,1,1.51-.8,2.87,2.87,0,0,1,1.71.17,3,3,0,0,1-1.13,5.73Zm0-5.25a2.34,2.34,0,0,0-1.28.38,2.45,2.45,0,0,0-.86,1,2.32,2.32,0,0,0-.13,1.33,2.35,2.35,0,0,0,.63,1.18,2.3,2.3,0,1,0,1.64-3.93Z"/><path class="cls-25" d="M323.08,125.8c-5,1.06-6.46,3.27-6.94,11.22-.48,8.32.37,10.93,1.46,12,.74.78,4.83.89,6.9.32,2.59-.71,8.44-2.78,11.17-7,3.22-4.91,4.07-11.59.62-14.32C331.46,124.24,325.13,125.37,323.08,125.8Z"/><path class="cls-27" d="M323.27,149.63,323,148.1a10,10,0,0,1-5.13,1.16A12.79,12.79,0,0,0,323.27,149.63Z"/><path class="cls-8" d="M314.7,135l8.91,1.16-.36.62-8.55-1.11Z"/><path class="cls-8" d="M315.31,129a2.92,2.92,0,0,0,1.14-.07,1.76,1.76,0,0,0,.6,2.09,2.54,2.54,0,0,0,1.09.41,2.68,2.68,0,0,0,1.16-.11,2.15,2.15,0,0,0-.25,1.57,2.59,2.59,0,0,0,2.64,1.88c.05,1.16.07,2.3,1.3,2.83,0,0,.79-3.08,3.39-2.69s3,3.71,1.32,5.74-3.15,1.25-3.15,1.24.2,1.06.25,1.24a9.34,9.34,0,0,0,.67,1.68,7.93,7.93,0,0,0,2.36,2.75,5.88,5.88,0,0,0,2.22,1.18,5.75,5.75,0,0,0,2.51.12,5,5,0,0,0,2-1,5.14,5.14,0,0,0,1.4-1.77,2.88,2.88,0,0,1,.55-1,3.32,3.32,0,0,1,1.28-.55,3.75,3.75,0,0,0,2.28-2.15,4,4,0,0,0,.27-1.59,3.82,3.82,0,0,0-.43-1.55,3.45,3.45,0,0,0,2.48-4.2,2.76,2.76,0,0,0-.08-.27,3.49,3.49,0,0,0-1.08-1.54,4,4,0,0,0,1.6-2,4.1,4.1,0,0,0,.17-2.52,4.2,4.2,0,0,0-1.11-1.81,4.14,4.14,0,0,0-1.85-1c-1-.29-.62-.45-.94-1.44a3.68,3.68,0,0,0-1.16-1.74,3.76,3.76,0,0,0-1.65-.75,3.66,3.66,0,0,0-1.8.11,3.5,3.5,0,0,0-2.5-2.69,3.32,3.32,0,0,0-1.77-.07c-.42.1-1.27.49-1.42.89-.53-.52-.71-1.21-1.34-1.67a4,4,0,0,0-1.47-.67,3.92,3.92,0,0,0-1.6,0,3.84,3.84,0,0,0-2.53,1.86,4.76,4.76,0,0,0-1.59-1.11,4.84,4.84,0,0,0-1.91-.36,3.92,3.92,0,0,0-1.85.56,3.8,3.8,0,0,0-1.34,1.39,3.34,3.34,0,0,0-.35,1.89,3.25,3.25,0,0,0,.78,1.75,3.87,3.87,0,0,0-1.94,1.67,2.44,2.44,0,0,0-.25,1.35,2.36,2.36,0,0,0,.53,1.27,2,2,0,0,0,1,.73A2.41,2.41,0,0,0,315.31,129Z"/><path class="cls-8" d="M322.91,139.34l.08-3.48a1.74,1.74,0,0,0-1.3,2.94A1.72,1.72,0,0,0,322.91,139.34Z"/></svg>